<svg width="48" height="48" viewBox="0 0 48 48" fill="none" xmlns="http://www.w3.org/2000/svg">
<path d="M24 44C20.287 44 16.726 42.525 14.1005 39.8995C11.475 37.274 10 33.713 10 30V18C10 14.287 11.475 10.726 14.1005 8.1006C16.726 5.475 20.287 4 24 4C27.713 4 31.274 5.475 33.8994 8.1006C36.525 10.726 38 14.287 38 18V30C38 33.713 36.525 37.274 33.8994 39.8995C31.274 42.525 27.713 44 24 44ZM14 30C13.9995 32.3053 14.7956 34.54 16.2534 36.3258C17.7112 38.1116 19.7413 39.3389 22 39.8V28H14V30ZM34 18C34 15.3478 32.9464 12.8042 31.071 10.929C29.1958 9.0536 26.6522 8 24 8C21.3478 8 18.8043 9.0536 16.9289 10.929C15.0536 12.8042 14 15.3478 14 18V24H34V18ZM34 28H26V39.8C28.2588 39.3389 30.2888 38.1116 31.7466 36.3258C33.2044 34.54 34.0004 32.3053 34 30V28Z" fill="black"/>
</svg>
