<svg width="48" height="48" viewBox="0 0 48 48" fill="none" xmlns="http://www.w3.org/2000/svg">
<path d="M17.7998 34.0002C17.4042 34.0002 17.0176 34.1176 16.6887 34.3374C16.3598 34.557 16.1034 34.8694 15.952 35.235C15.8007 35.6004 15.7611 36.0024 15.8382 36.3904C15.9154 36.7784 16.1059 37.1348 16.3856 37.4144C16.6653 37.6942 17.0217 37.8846 17.4096 37.9618C17.7976 38.039 18.1997 37.9994 18.5652 37.848C18.9306 37.6966 19.243 37.4404 19.4627 37.1114C19.6825 36.7826 19.7998 36.3958 19.7998 36.0002C19.7998 35.4698 19.5891 34.9612 19.214 34.586C18.8389 34.211 18.3302 34.0002 17.7998 34.0002ZM11.7998 34.0002C11.4042 34.0002 11.0176 34.1176 10.6887 34.3374C10.3598 34.557 10.1034 34.8694 9.95204 35.235C9.80068 35.6004 9.76106 36.0024 9.83824 36.3904C9.9154 36.7784 10.1059 37.1348 10.3856 37.4144C10.6653 37.6942 11.0217 37.8846 11.4096 37.9618C11.7976 38.039 12.1997 37.9994 12.5652 37.848C12.9306 37.6966 13.243 37.4404 13.4627 37.1114C13.6825 36.7826 13.7998 36.3958 13.7998 36.0002C13.7998 35.4698 13.5891 34.9612 13.214 34.586C12.8389 34.211 12.3302 34.0002 11.7998 34.0002ZM23.7998 34.0002C23.4042 34.0002 23.0176 34.1176 22.6886 34.3374C22.3598 34.557 22.1034 34.8694 21.952 35.235C21.8006 35.6004 21.761 36.0024 21.8382 36.3904C21.9154 36.7784 22.1058 37.1348 22.3856 37.4144C22.6652 37.6942 23.0216 37.8846 23.4096 37.9618C23.7976 38.039 24.1998 37.9994 24.5652 37.848C24.9306 37.6966 25.243 37.4404 25.4628 37.1114C25.6826 36.7826 25.7998 36.3958 25.7998 36.0002C25.7998 35.4698 25.589 34.9612 25.214 34.586C24.839 34.211 24.3302 34.0002 23.7998 34.0002ZM29.9998 17.0003C30.1756 16.6972 30.428 16.4456 30.7316 16.2707C31.0352 16.0959 31.3794 16.0038 31.7298 16.0038C32.0802 16.0038 32.4244 16.0959 32.728 16.2707C33.0316 16.4456 33.284 16.6972 33.4598 17.0003C33.7236 17.4577 34.1578 17.7923 34.6672 17.9309C35.1768 18.0696 35.7206 18.001 36.1798 17.7403C36.4158 17.6164 36.6246 17.4467 36.794 17.2411C36.9634 17.0355 37.09 16.7981 37.1664 16.5428C37.2428 16.2876 37.2674 16.0196 37.2388 15.7547C37.2102 15.4898 37.129 15.2333 36.9998 15.0003C36.4738 14.0864 35.716 13.3272 34.8032 12.7994C33.8902 12.2715 32.8544 11.9936 31.7998 11.9936C30.7452 11.9936 29.7094 12.2715 28.7964 12.7994C27.8836 13.3272 27.1258 14.0864 26.5998 15.0003C26.431 15.442 26.424 15.9293 26.5804 16.3757C26.7368 16.822 27.0462 17.1985 27.454 17.4383C27.8616 17.6781 28.341 17.7656 28.807 17.6854C29.2732 17.6053 29.6958 17.3625 29.9998 17.0003ZM43.9998 11.0003C42.7704 8.87403 41.0034 7.10863 38.876 5.88127C36.7486 4.65391 34.3358 4.00781 31.8798 4.00781C29.4238 4.00781 27.011 4.65391 24.8836 5.88127C22.7562 7.10863 20.9892 8.87403 19.7598 11.0003C19.6276 11.2285 19.5418 11.4807 19.5074 11.7423C19.4731 12.0038 19.4908 12.2696 19.5596 12.5243C19.6283 12.779 19.7468 13.0175 19.9082 13.2262C20.0696 13.4349 20.2706 13.6096 20.4998 13.7403C20.775 13.897 21.0834 13.9861 21.3998 14.0003C21.7522 14.0017 22.0988 13.9099 22.4044 13.7343C22.7098 13.5587 22.9636 13.3055 23.1398 13.0003C24.0176 11.4802 25.2798 10.2179 26.8 9.34033C28.3202 8.46273 30.0446 8.00071 31.7998 8.00071C33.555 8.00071 35.2794 8.46273 36.7996 9.34033C38.3198 10.2179 39.582 11.4802 40.4598 13.0003C40.5904 13.2294 40.7652 13.4305 40.9738 13.5919C41.1826 13.7532 41.4212 13.8717 41.6758 13.9405C41.9304 14.0093 42.1962 14.027 42.4578 13.9927C42.7194 13.9583 42.9716 13.8725 43.1998 13.7403C43.434 13.6147 43.6408 13.4437 43.8082 13.2373C43.9756 13.0309 44.1002 12.7932 44.1746 12.5381C44.2492 12.283 44.272 12.0156 44.242 11.7516C44.212 11.4875 44.1296 11.2321 43.9998 11.0003ZM35.7998 28.0002H33.7998V22.0002C33.7998 21.4698 33.589 20.9612 33.214 20.586C32.839 20.211 32.3302 20.0002 31.7998 20.0002C31.2694 20.0002 30.7606 20.211 30.3856 20.586C30.0106 20.9612 29.7998 21.4698 29.7998 22.0002V28.0002H9.7998C8.2085 28.0002 6.68238 28.6324 5.55716 29.7576C4.43194 30.8828 3.7998 32.409 3.7998 34.0002V38.0002C3.7998 39.5916 4.43194 41.1176 5.55716 42.243C6.68238 43.3682 8.2085 44.0002 9.7998 44.0002H35.7998C37.3912 44.0002 38.9172 43.3682 40.0424 42.243C41.1676 41.1176 41.7998 39.5916 41.7998 38.0002V34.0002C41.7998 32.409 41.1676 30.8828 40.0424 29.7576C38.9172 28.6324 37.3912 28.0002 35.7998 28.0002ZM37.7998 38.0002C37.7998 38.5308 37.589 39.0394 37.214 39.4144C36.839 39.7896 36.3302 40.0002 35.7998 40.0002H9.7998C9.26938 40.0002 8.76066 39.7896 8.3856 39.4144C8.01052 39.0394 7.7998 38.5308 7.7998 38.0002V34.0002C7.7998 33.4698 8.01052 32.9612 8.3856 32.586C8.76066 32.211 9.26938 32.0002 9.7998 32.0002H35.7998C36.3302 32.0002 36.839 32.211 37.214 32.586C37.589 32.9612 37.7998 33.4698 37.7998 34.0002V38.0002Z" fill="black"/>
</svg>
