<svg width="48" height="48" viewBox="0 0 48 48" fill="none" xmlns="http://www.w3.org/2000/svg">
<path d="M14 20C13.6044 20 13.2178 20.1172 12.8889 20.337C12.56 20.5568 12.3036 20.8692 12.1522 21.2346C12.0009 21.6 11.9613 22.0022 12.0384 22.3902C12.1156 22.7782 12.3061 23.1346 12.5858 23.4142C12.8655 23.694 13.2219 23.8844 13.6098 23.9616C13.9978 24.0388 14.3999 23.9992 14.7654 23.8478C15.1308 23.6964 15.4432 23.44 15.6629 23.1112C15.8827 22.7822 16 22.3956 16 22C16 21.4696 15.7893 20.9608 15.4142 20.5858C15.0391 20.2108 14.5304 20 14 20ZM38 12H36V6C36 5.46956 35.7892 4.96086 35.4142 4.58578C35.0392 4.21072 34.5304 4 34 4H14C13.4696 4 12.9609 4.21072 12.5858 4.58578C12.2107 4.96086 12 5.46956 12 6V12H10C8.4087 12 6.88258 12.6321 5.75736 13.7574C4.63214 14.8826 4 16.4087 4 18V30C4 31.5912 4.63214 33.1174 5.75736 34.2426C6.88258 35.3678 8.4087 36 10 36H12V42C12 42.5304 12.2107 43.0392 12.5858 43.4142C12.9609 43.7892 13.4696 44 14 44H34C34.5304 44 35.0392 43.7892 35.4142 43.4142C35.7892 43.0392 36 42.5304 36 42V36H38C39.5912 36 41.1174 35.3678 42.2426 34.2426C43.3678 33.1174 44 31.5912 44 30V18C44 16.4087 43.3678 14.8826 42.2426 13.7574C41.1174 12.6321 39.5912 12 38 12ZM16 8H32V12H16V8ZM32 40H16V32H32V40ZM40 30C40 30.5304 39.7892 31.0392 39.4142 31.4142C39.0392 31.7892 38.5304 32 38 32H36V30C36 29.4696 35.7892 28.9608 35.4142 28.5858C35.0392 28.2108 34.5304 28 34 28H14C13.4696 28 12.9609 28.2108 12.5858 28.5858C12.2107 28.9608 12 29.4696 12 30V32H10C9.46956 32 8.96086 31.7892 8.58578 31.4142C8.21072 31.0392 8 30.5304 8 30V18C8 17.4696 8.21072 16.9609 8.58578 16.5858C8.96086 16.2107 9.46956 16 10 16H38C38.5304 16 39.0392 16.2107 39.4142 16.5858C39.7892 16.9609 40 17.4696 40 18V30Z" fill="black"/>
</svg>
