<svg width="48" height="48" viewBox="0 0 48 48" fill="none" xmlns="http://www.w3.org/2000/svg">
<path d="M24 25.9992C25.1868 25.9992 26.3468 25.6472 27.3334 24.988C28.3202 24.3286 29.0892 23.3916 29.5434 22.2952C29.9974 21.199 30.1162 19.9925 29.8848 18.8286C29.6532 17.6647 29.0818 16.5956 28.2426 15.7565C27.4036 14.9174 26.3344 14.346 25.1706 14.1145C24.0066 13.8829 22.8002 14.0018 21.704 14.4559C20.6076 14.91 19.6705 15.6791 19.0112 16.6657C18.3519 17.6524 18 18.8125 18 19.9992C18 21.5904 18.6322 23.1166 19.7574 24.2418C20.8826 25.367 22.4088 25.9992 24 25.9992ZM24 17.9992C24.3956 17.9992 24.7822 18.1165 25.1112 18.3362C25.44 18.556 25.6964 18.8684 25.8478 19.2338C25.9992 19.5993 26.0388 20.0014 25.9616 20.3894C25.8844 20.7774 25.694 21.1336 25.4142 21.4134C25.1346 21.693 24.7782 21.8836 24.3902 21.9608C24.0022 22.038 23.6002 21.9984 23.2346 21.847C22.8692 21.6956 22.5568 21.4392 22.337 21.1104C22.1174 20.7814 22 20.3948 22 19.9992C22 19.4687 22.2108 18.96 22.5858 18.585C22.9608 18.2099 23.4696 17.9992 24 17.9992ZM43.18 36.3192C42.2034 33.0802 40.4212 30.142 38 27.7792C39.3478 25.3434 40.0366 22.598 39.9986 19.8144C39.9604 17.0308 39.1968 14.3053 37.783 11.9072C36.369 9.50908 34.354 7.52138 31.9368 6.14046C29.5196 4.75954 26.7838 4.0332 24 4.0332C21.2162 4.0332 18.4805 4.75954 16.0633 6.14046C13.6461 7.52138 11.631 9.50908 10.2171 11.9072C8.8033 14.3053 8.0396 17.0308 8.00152 19.8144C7.96344 22.598 8.6523 25.3434 10 27.7792C7.56464 30.1342 5.77422 33.0746 4.80002 36.3192C4.53968 37.209 4.48908 38.147 4.65216 39.0596C4.81526 39.9722 5.18762 40.8346 5.74002 41.5792C6.30284 42.3362 7.03622 42.9498 7.88064 43.3704C8.72506 43.7908 9.65674 44.0062 10.6 43.9992H37.4C38.34 44.003 39.2676 43.7862 40.1084 43.3658C40.949 42.9454 41.6792 42.3334 42.24 41.5792C42.7924 40.8346 43.1648 39.9722 43.3278 39.0596C43.491 38.147 43.4404 37.209 43.18 36.3192ZM24 7.99916C26.3734 7.99916 28.6934 8.70296 30.6668 10.0215C32.6402 11.3401 34.1784 13.2143 35.0866 15.407C35.9948 17.5997 36.2324 20.0124 35.7694 22.3402C35.3064 24.668 34.1636 26.8062 32.4854 28.4844C30.807 30.1626 28.6688 31.3056 26.3412 31.7686C24.0134 32.2316 21.6006 31.994 19.4078 31.0858C17.2151 30.1774 15.341 28.6394 14.0224 26.666C12.7038 24.6926 12 22.3726 12 19.9992C12 16.8166 13.2643 13.7643 15.5147 11.5139C17.7652 9.26346 20.8174 7.99916 24 7.99916ZM39.04 39.1792C38.8518 39.4368 38.6048 39.6456 38.3196 39.7882C38.0342 39.9308 37.719 40.0032 37.4 39.9992H10.6C10.2811 40.0032 9.96582 39.9308 9.68052 39.7882C9.39522 39.6456 9.14818 39.4368 8.96002 39.1792C8.7802 38.9314 8.65962 38.6458 8.60762 38.344C8.5556 38.0424 8.57354 37.7328 8.66002 37.4392C9.37794 35.0216 10.6677 32.8128 12.42 30.9992C13.9142 32.5664 15.711 33.8138 17.7014 34.6662C19.6919 35.5186 21.8348 35.9582 24 35.9582C26.1654 35.9582 28.3082 35.5186 30.2986 34.6662C32.289 33.8138 34.0858 32.5664 35.58 30.9992C37.3324 32.8128 38.622 35.0216 39.34 37.4392C39.4266 37.7328 39.4444 38.0424 39.3924 38.344C39.3404 38.6458 39.2198 38.9314 39.04 39.1792Z" fill="black"/>
</svg>
