<svg width="48" height="48" viewBox="0 0 48 48" fill="none" xmlns="http://www.w3.org/2000/svg">
<path fill-rule="evenodd" clip-rule="evenodd" d="M20.4741 12.4135C22.262 18.8372 19.3972 23.1939 13.3093 24.7643C11.2264 25.3016 9.14574 25.3274 7.25361 24.9276C7.11006 24.8973 9.95307 33.2598 11.821 38.7543C12.3289 40.248 12.7646 41.5296 13.0487 42.3732C13.325 43.1937 12.8626 44.0751 12.0125 44.3478L10.2324 44.919C9.36732 45.1965 8.43396 44.7372 8.1612 43.8996L0.554595 20.9689C-1.53236 14.5602 2.5413 8.0438 8.24589 6.57233C14.3338 5.00192 18.454 6.57239 20.4741 12.4135ZM17.8721 19.0771C19.1632 18.7412 19.5554 16.0968 18.7481 13.1708C17.9408 10.2448 16.2397 8.1452 14.9486 8.48117C13.6575 8.81714 13.2653 11.4615 14.0726 14.3875C14.8799 17.3135 16.581 19.4131 17.8721 19.0771Z" fill="black"/>
<path fill-rule="evenodd" clip-rule="evenodd" d="M27.5259 12.4135C25.738 18.8372 28.6028 23.1939 34.6908 24.7643C36.7737 25.3016 38.8542 25.3274 40.7463 24.9276C40.89 24.8973 38.0469 33.2598 36.1791 38.7543C35.6712 40.248 35.2353 41.5296 34.9512 42.3732C34.6749 43.1937 35.1375 44.0751 35.9874 44.3478L37.7676 44.919C38.6328 45.1965 39.5661 44.7372 39.8388 43.8996L47.4453 20.9689C49.5324 14.5602 45.4587 8.0438 39.7542 6.57233C33.6663 5.00192 29.546 6.57239 27.5259 12.4135ZM30.1278 19.0771C28.8368 18.7412 28.4446 16.0968 29.2519 13.1708C30.0591 10.2448 31.7604 8.1452 33.0513 8.48117C34.3425 8.81714 34.7346 11.4615 33.9273 14.3875C33.12 17.3135 31.419 19.4131 30.1278 19.0771Z" fill="black"/>
</svg>
