<svg width="48" height="48" viewBox="0 0 48 48" fill="none" xmlns="http://www.w3.org/2000/svg">
<path d="M3 9C1.34314 9 0 10.3432 0 12V36C0 37.6569 1.34314 39 3 39H16.7574C17.553 39 18.3161 38.6838 18.8787 38.1213L19.9394 37.0608C20.5251 36.4749 21.4749 36.4749 22.0606 37.0608L23.1213 38.1213C23.6839 38.6838 24.447 39 25.2426 39H45C46.6569 39 48 37.6569 48 36V12C48 10.3432 46.6569 9 45 9H3ZM4.5 12H13.5C14.3284 12 15 12.6716 15 13.5V25.5C15 26.3284 14.3284 27 13.5 27H4.5C3.67158 27 3 26.3284 3 25.5V13.5C3 12.6716 3.67158 12 4.5 12ZM19.5 12H28.5C29.3284 12 30 12.6716 30 13.5V25.5C30 26.3284 29.3284 27 28.5 27H19.5C18.6716 27 18 26.3284 18 25.5V13.5C18 12.6716 18.6716 12 19.5 12ZM33 13.5C33 12.6716 33.6717 12 34.5 12H43.5C44.3283 12 45 12.6716 45 13.5V25.5C45 26.3284 44.3283 27 43.5 27H34.5C33.6717 27 33 26.3284 33 25.5V13.5ZM6 30V36H3V30H6ZM12 30V36H9V30H12ZM18 30V36H15V30H18ZM27 30V36H24V30H27ZM33 30V36H30V30H33ZM39 30V36H36V30H39ZM45 30V36H42V30H45Z" fill="black"/>
</svg>
