<svg width="34" height="35" viewBox="0 0 34 35" fill="none" xmlns="http://www.w3.org/2000/svg">
    <g clip-path="url(#clip0_7895_124)">
        <path d="M17 35C26.3888 35 34 27.165 34 17.5C34 7.83502 26.3888 0 17 0C7.61116 0 0 7.83502 0 17.5C0 27.165 7.61116 35 17 35Z"
              fill="#657170"/>
        <path d="M8.8584 8.63965L10.3437 25.4617L17.0137 27.3309L23.6811 25.4629L25.1691 8.63965H8.8584Z"
              fill="#2299F8"/>
        <path d="M21.9931 14.1409L21.8056 16.2541L21.2392 22.5894L17.0137 23.7611L17.0101 23.7621L12.7867 22.5894L12.4921 19.2762H14.5612L14.715 20.9947L17.0113 21.6161L17.0124 21.615L19.3122 20.9935L19.6256 18.1302L12.393 18.1502L12.1879 16.1922L19.799 16.1021L19.953 14.0065L11.9841 14.0288L11.8501 12.0791H22.177L21.9931 14.1409Z"
              fill="#FCFCFC"/>
    </g>
    <defs>
        <clipPath id="clip0_7895_124">
            <rect width="34" height="35" fill="white"/>
        </clipPath>
    </defs>
</svg>
