<svg width="34" height="35" viewBox="0 0 34 35" fill="none" xmlns="http://www.w3.org/2000/svg">
    <g clip-path="url(#clip0_7895_132)">
        <path d="M17 35C26.3888 35 34 27.165 34 17.5C34 7.83502 26.3888 0 17 0C7.61116 0 0 7.83502 0 17.5C0 27.165 7.61116 35 17 35Z"
              fill="#657170"/>
        <path d="M27 23.4967C26.2725 23.6817 25.8225 23.5048 25.4187 22.8985L22.5475 18.926L22.1325 18.376L18.7794 22.9117C18.3963 23.4573 17.9944 23.6948 17.2794 23.5017L21.5731 17.7379L17.5756 12.5317C18.2631 12.3979 18.7381 12.466 19.16 13.0817L22.1381 17.1035L25.1381 13.1035C25.5225 12.5579 25.9356 12.3504 26.6256 12.5517L25.0756 14.6067L22.9756 17.341C22.7256 17.6535 22.76 17.8673 22.99 18.1692L27 23.4967ZM7.005 17.6417L7.35625 15.9142C8.3125 12.4954 12.2313 11.0748 14.9338 13.1873C16.5131 14.4298 16.9056 16.1873 16.8275 18.156H7.925C7.79125 21.6998 10.3419 23.8385 13.5938 22.7473C14.7344 22.3642 15.4062 21.471 15.7425 20.3535C15.9131 19.7935 16.1956 19.706 16.7219 19.866C16.4531 21.2635 15.8469 22.431 14.5656 23.1617C12.6512 24.2554 9.91875 23.9017 8.48125 22.3817C7.625 21.4998 7.27125 20.3823 7.1125 19.1873C7.0875 18.9898 7.0375 18.8017 7 18.6123C7.00333 18.2889 7.005 17.9656 7.005 17.6423V17.6417ZM7.94125 17.4042H15.9863C15.9338 14.8417 14.3381 13.0217 12.1575 13.006C9.76375 12.9873 8.045 14.7642 7.94125 17.4042Z"
              fill="white"/>
    </g>
    <defs>
        <clipPath id="clip0_7895_132">
            <rect width="34" height="35" fill="white"/>
        </clipPath>
    </defs>
</svg>
