<svg width="34" height="35" viewBox="0 0 34 35" fill="none" xmlns="http://www.w3.org/2000/svg">
    <g clip-path="url(#clip0_7895_14)">
        <path d="M17 35C26.3888 35 34 27.165 34 17.5C34 7.83502 26.3888 0 17 0C7.61116 0 0 7.83502 0 17.5C0 27.165 7.61116 35 17 35Z"
              fill="#657170"/>
        <mask id="mask0_7895_14" style="mask-type:luminance" maskUnits="userSpaceOnUse" x="12" y="10" width="10"
              height="15">
            <path d="M22 10H12V25H22V10Z" fill="white"/>
        </mask>
        <g mask="url(#mask0_7895_14)">
            <path d="M14.5 25C15.88 25 17 23.88 17 22.5V20H14.5C13.12 20 12 21.12 12 22.5C12 23.88 13.12 25 14.5 25Z"
                  fill="#0ACF83"/>
            <path d="M12 17.5C12 16.12 13.12 15 14.5 15H17V20H14.5C13.12 20 12 18.88 12 17.5Z" fill="#A259FF"/>
            <path d="M12 12.5C12 11.12 13.12 10 14.5 10H17V15H14.5C13.12 15 12 13.88 12 12.5Z" fill="#F24E1E"/>
            <path d="M17 10H19.5C20.88 10 22 11.12 22 12.5C22 13.88 20.88 15 19.5 15H17V10Z" fill="#FF7262"/>
            <path d="M22 17.5C22 18.88 20.88 20 19.5 20C18.12 20 17 18.88 17 17.5C17 16.12 18.12 15 19.5 15C20.88 15 22 16.12 22 17.5Z"
                  fill="#1ABCFE"/>
        </g>
    </g>
    <defs>
        <clipPath id="clip0_7895_14">
            <rect width="34" height="35" fill="white"/>
        </clipPath>
    </defs>
</svg>
