<svg width="34" height="35" viewBox="0 0 34 35" fill="none" xmlns="http://www.w3.org/2000/svg">
    <g clip-path="url(#clip0_7895_112)">
        <path d="M17 35C26.3888 35 34 27.165 34 17.5C34 7.83502 26.3888 0 17 0C7.61116 0 0 7.83502 0 17.5C0 27.165 7.61116 35 17 35Z"
              fill="#657170"/>
        <g clip-path="url(#clip1_7895_112)">
            <path d="M10 8L11.3534 26L17.4304 28L23.5054 26.0012L24.8609 8H10Z" fill="#FF5722"/>
            <path d="M21.9259 13.8864H17.4304H14.8033L14.9731 16.1477H17.4304H21.756L21.2454 22.9277L17.4304 24.1814L17.4273 24.1827L13.6144 22.9277L13.348 19.3814H15.2162L15.3552 21.2214L17.4283 21.8852L17.4304 21.8839L19.5057 21.2202L19.7222 18.3564H17.4304H13.2715L12.7684 11.6802H17.4304H22.0915L21.9259 13.8864Z"
                  fill="#FAFAFA"/>
        </g>
    </g>
    <defs>
        <clipPath id="clip0_7895_112">
            <rect width="34" height="35" fill="white"/>
        </clipPath>
        <clipPath id="clip1_7895_112">
            <rect width="15" height="20" fill="white" transform="translate(10 8)"/>
        </clipPath>
    </defs>
</svg>
