<svg width="34" height="35" viewBox="0 0 34 35" fill="none" xmlns="http://www.w3.org/2000/svg">
    <g clip-path="url(#clip0_7895_25)">
        <path d="M17 35C26.3888 35 34 27.165 34 17.5C34 7.83502 26.3888 0 17 0C7.61116 0 0 7.83502 0 17.5C0 27.165 7.61116 35 17 35Z"
              fill="#657170"/>
        <path d="M8.25 9.25H25.75V26.75H8.25V9.25Z" fill="#D9F431"/>
        <path d="M20.0055 22.9216C20.1547 23.2244 20.3863 23.479 20.6738 23.6559C20.9613 23.8329 21.293 23.9249 21.6305 23.9216C22.3118 23.9216 22.7474 23.5809 22.7474 23.1091C22.7474 22.5466 22.2999 22.3453 21.5499 22.0172L21.1387 21.8409C19.9512 21.3353 19.1637 20.7022 19.1637 19.3634C19.1637 18.1303 20.1012 17.1909 21.5718 17.1909C22.0479 17.1566 22.5235 17.2631 22.9394 17.4973C23.3553 17.7315 23.6931 18.0829 23.9105 18.5078L22.6249 19.3297C22.5412 19.119 22.3954 18.9388 22.2069 18.8129C22.0183 18.6869 21.796 18.6213 21.5693 18.6247C21.4704 18.6148 21.3705 18.6256 21.276 18.6564C21.1815 18.6873 21.0945 18.7374 21.0205 18.8038C20.9465 18.8701 20.887 18.9511 20.8461 19.0416C20.8051 19.1322 20.7834 19.2303 20.7824 19.3297C20.7824 19.8228 21.088 20.0228 21.7937 20.3297L22.2049 20.5059C23.6024 21.1053 24.3924 21.7159 24.3924 23.0891C24.3924 24.5697 23.2293 25.3809 21.6674 25.3809C21.0589 25.4197 20.4521 25.2815 19.9203 24.9831C19.3885 24.6847 18.9545 24.2387 18.6705 23.6991L20.0055 22.9216ZM14.1962 23.0641C14.4543 23.5222 14.6893 23.9097 15.2543 23.9097C15.7943 23.9097 16.1355 23.6984 16.1355 22.8766V17.2847H17.7799V22.8984C17.7799 24.6009 16.7799 25.3759 15.3243 25.3759C14.8098 25.4041 14.2988 25.2758 13.8585 25.0081C13.4182 24.7404 13.0692 24.3457 12.8574 23.8759L14.1962 23.0641Z"
              fill="#120F1A"/>
    </g>
    <defs>
        <clipPath id="clip0_7895_25">
            <rect width="34" height="35" fill="white"/>
        </clipPath>
    </defs>
</svg>
