<svg width="34" height="35" viewBox="0 0 34 35" fill="none" xmlns="http://www.w3.org/2000/svg">
    <g clip-path="url(#clip0_7895_128)">
        <path d="M17 35C26.3888 35 34 27.165 34 17.5C34 7.83502 26.3888 0 17 0C7.61116 0 0 7.83502 0 17.5C0 27.165 7.61116 35 17 35Z"
              fill="#657170"/>
        <g clip-path="url(#clip1_7895_128)">
            <path d="M16.9392 27.9629C16.6305 27.9629 16.3424 27.8895 16.0749 27.7611L13.338 26.3123C12.9265 26.1106 13.1323 26.0372 13.2557 26.0005C13.8113 25.8355 13.9142 25.7988 14.4904 25.5054C14.5522 25.4687 14.6345 25.487 14.6962 25.5237L16.7952 26.6424C16.8775 26.6791 16.9804 26.6791 17.0421 26.6424L25.2528 22.4059C25.3351 22.3692 25.3762 22.2959 25.3762 22.2042V13.7495C25.3762 13.6578 25.3351 13.5845 25.2528 13.5478L17.0421 9.32964C16.9598 9.29296 16.8569 9.29296 16.7952 9.32964L8.58451 13.5478C8.5022 13.5845 8.46104 13.6762 8.46104 13.7495V22.2042C8.46104 22.2775 8.5022 22.3692 8.58451 22.4059L10.8275 23.5613C12.0416 24.1115 12.803 23.4696 12.803 22.8277V14.4831C12.803 14.3731 12.9059 14.263 13.05 14.263H14.0994C14.2229 14.263 14.3464 14.3547 14.3464 14.4831V22.8277C14.3464 24.2766 13.4615 25.1202 11.9182 25.1202C11.4449 25.1202 11.0745 25.1202 10.025 24.6617L7.86428 23.5613C7.32925 23.2862 7 22.7727 7 22.2225V13.7679C7 13.2177 7.32925 12.7042 7.86428 12.4291L16.0749 8.19257C16.5894 7.93581 17.289 7.93581 17.8035 8.19257L26.0141 12.4291C26.5492 12.7042 26.8784 13.2177 26.8784 13.7679V22.2225C26.8784 22.7727 26.5492 23.2862 26.0141 23.5613L17.8035 27.7978C17.536 27.9079 17.2273 27.9629 16.9392 27.9629ZM19.4703 22.1492C15.8692 22.1492 15.1283 20.682 15.1283 19.4349C15.1283 19.3248 15.2312 19.2148 15.3753 19.2148H16.4453C16.5688 19.2148 16.6717 19.2882 16.6717 19.3982C16.8363 20.3702 17.3096 20.847 19.4909 20.847C21.2195 20.847 21.9603 20.4986 21.9603 19.6733C21.9603 19.1965 21.7545 18.848 19.0588 18.6096C16.8157 18.4078 15.4164 17.9677 15.4164 16.3721C15.4164 14.8866 16.8157 14.0063 19.1617 14.0063C21.7957 14.0063 23.0921 14.8132 23.2567 16.5739C23.2567 16.6289 23.2361 16.6839 23.195 16.7389C23.1538 16.7756 23.0921 16.8123 23.0303 16.8123H21.9603C21.8574 16.8123 21.7545 16.7389 21.7339 16.6472C21.487 15.6385 20.849 15.3084 19.1617 15.3084C17.2685 15.3084 17.0421 15.8953 17.0421 16.3354C17.0421 16.8673 17.3096 17.0324 19.8613 17.3258C22.3924 17.6192 23.5859 18.041 23.5859 19.6183C23.5654 21.2322 22.0837 22.1492 19.4703 22.1492Z"
                  fill="#539E43"/>
        </g>
    </g>
    <defs>
        <clipPath id="clip0_7895_128">
            <rect width="34" height="35" fill="white"/>
        </clipPath>
        <clipPath id="clip1_7895_128">
            <rect width="20" height="20" fill="white" transform="translate(7 8)"/>
        </clipPath>
    </defs>
</svg>
