<svg width="34" height="35" viewBox="0 0 34 35" fill="none" xmlns="http://www.w3.org/2000/svg">
    <g clip-path="url(#clip0_7895_116)">
        <path d="M17 35C26.3888 35 34 27.165 34 17.5C34 7.83502 26.3888 0 17 0C7.61116 0 0 7.83502 0 17.5C0 27.165 7.61116 35 17 35Z"
              fill="#657170"/>
        <path d="M17 16.875C17.8025 16.875 18.4531 16.2244 18.4531 15.4219C18.4531 14.6193 17.8025 13.9688 17 13.9688C16.1975 13.9688 15.5469 14.6193 15.5469 15.4219C15.5469 16.2244 16.1975 16.875 17 16.875Z"
              fill="#61DAFB"/>
        <path d="M17 20.7656C18.1406 21.875 19.2656 22.5313 20.1719 22.5313C20.4688 22.5313 20.75 22.4687 20.9844 22.3281C21.7969 21.8594 22.0938 20.6875 21.8125 19.0156C21.7656 18.7188 21.7031 18.4219 21.625 18.1094C21.9375 18.0156 22.2187 17.9219 22.5 17.8281C24.0781 17.2188 24.9531 16.375 24.9531 15.4531C24.9531 14.5156 24.0781 13.6719 22.5 13.0781C22.2187 12.9687 21.9375 12.875 21.625 12.7969C21.7031 12.4844 21.7656 12.1875 21.8125 11.8906C22.0781 10.1875 21.7813 9 20.9688 8.53125C20.7344 8.39063 20.4531 8.32812 20.1562 8.32812C19.2656 8.32812 18.125 8.98437 16.9844 10.0937C15.8594 8.98437 14.7344 8.32812 13.8281 8.32812C13.5313 8.32812 13.25 8.39063 13.0156 8.53125C12.2031 9 11.9063 10.1719 12.1875 11.8438C12.2344 12.1406 12.2969 12.4375 12.375 12.75C12.0625 12.8437 11.7812 12.9375 11.5 13.0313C9.92187 13.6406 9.04688 14.4844 9.04688 15.4063C9.04688 16.3438 9.92187 17.1875 11.5 17.7812C11.7812 17.8906 12.0625 17.9844 12.375 18.0625C12.2969 18.375 12.2344 18.6719 12.1875 18.9687C11.9219 20.6406 12.2187 21.8281 13.0156 22.2813C13.25 22.4219 13.5313 22.4844 13.8281 22.4844C14.7344 22.5156 15.8594 21.8594 17 20.7656ZM16.125 18.6562C16.4063 18.6719 16.7031 18.6719 17 18.6719C17.2969 18.6719 17.5938 18.6719 17.875 18.6562C17.5938 19.0312 17.2969 19.375 17 19.7031C16.7031 19.375 16.4063 19.0312 16.125 18.6562ZM14.1875 17.0469C14.3438 17.3125 14.4844 17.5625 14.6563 17.8125C14.1719 17.75 13.7188 17.6719 13.2813 17.5781C13.4219 17.1563 13.5781 16.7188 13.7656 16.2813C13.8906 16.5313 14.0313 16.7969 14.1875 17.0469ZM13.2813 13.2812C13.7188 13.1875 14.1719 13.1094 14.6563 13.0469C14.5 13.2969 14.3438 13.5469 14.1875 13.8125C14.0313 14.0781 13.8906 14.3281 13.7656 14.5938C13.5625 14.1406 13.4063 13.7031 13.2813 13.2812ZM14.1406 15.4219C14.3437 15 14.5625 14.5781 14.8125 14.1563C15.0469 13.75 15.3125 13.3437 15.5781 12.9375C16.0469 12.9062 16.5156 12.8906 17 12.8906C17.5 12.8906 17.9687 12.9062 18.4219 12.9375C18.7031 13.3437 18.9531 13.75 19.1875 14.1563C19.4375 14.5781 19.6563 15 19.8594 15.4219C19.6563 15.8438 19.4375 16.2656 19.1875 16.6875C18.9531 17.0937 18.6875 17.5 18.4219 17.9063C17.9531 17.9375 17.4844 17.9531 17 17.9531C16.5 17.9531 16.0313 17.9375 15.5781 17.9063C15.2969 17.5 15.0469 17.0937 14.8125 16.6875C14.5625 16.2656 14.3437 15.8438 14.1406 15.4219ZM20.25 14.5781L19.8281 13.7969C19.6719 13.5312 19.5313 13.2813 19.3594 13.0313C19.8437 13.0938 20.2969 13.1719 20.7344 13.2656C20.5938 13.7031 20.4375 14.1406 20.25 14.5781ZM20.25 16.2656C20.4375 16.7031 20.5938 17.1406 20.7344 17.5625C20.2969 17.6563 19.8437 17.7344 19.3594 17.7969C19.5156 17.5469 19.6719 17.2969 19.8281 17.0313C19.9687 16.7969 20.1094 16.5313 20.25 16.2656ZM20.6094 21.6875C20.4844 21.7656 20.3281 21.7969 20.1562 21.7969C19.3906 21.7969 18.4375 21.1719 17.5 20.2344C17.9531 19.75 18.3906 19.2031 18.8281 18.5938C19.5625 18.5313 20.2656 18.4219 20.9219 18.2656C21 18.5469 21.0469 18.8281 21.0937 19.1094C21.3125 20.4375 21.1406 21.3906 20.6094 21.6875ZM21.4219 13.4531C23.1719 13.9531 24.2187 14.7188 24.2187 15.4219C24.2187 16.0313 23.5 16.6406 22.2344 17.125C21.9844 17.2188 21.7031 17.3125 21.4219 17.3906C21.2188 16.75 20.9688 16.0938 20.6563 15.4219C20.9688 14.75 21.2344 14.0938 21.4219 13.4531ZM20.1719 9.04687C20.3438 9.04687 20.4844 9.07813 20.625 9.15625C21.1406 9.45313 21.3281 10.3906 21.1094 11.7344C21.0625 12 21 12.2812 20.9375 12.5781C20.2812 12.4375 19.5781 12.3281 18.8438 12.25C18.4219 11.6406 17.9688 11.0938 17.5156 10.6094C18.4531 9.6875 19.4063 9.04687 20.1719 9.04687ZM17.875 12.1875C17.5938 12.1719 17.2969 12.1719 17 12.1719C16.7031 12.1719 16.4063 12.1719 16.125 12.1875C16.4063 11.8125 16.7031 11.4687 17 11.1406C17.2969 11.4687 17.5938 11.8281 17.875 12.1875ZM13.3906 9.15625C13.5156 9.07813 13.6719 9.04687 13.8437 9.04687C14.6094 9.04687 15.5625 9.67188 16.5 10.6094C16.0469 11.0938 15.6094 11.6406 15.1719 12.25C14.4375 12.3125 13.7344 12.4219 13.0781 12.5781C13 12.2969 12.9531 12.0156 12.9062 11.7344C12.6875 10.4062 12.8594 9.46875 13.3906 9.15625ZM12.5781 17.3906C10.8281 16.8906 9.78125 16.125 9.78125 15.4219C9.78125 14.8125 10.5 14.2031 11.7656 13.7188C12.0156 13.625 12.2969 13.5313 12.5781 13.4531C12.7813 14.0938 13.0312 14.75 13.3437 15.4219C13.0312 16.0938 12.7656 16.7656 12.5781 17.3906ZM12.9062 19.1094C12.9531 18.8437 13.0156 18.5625 13.0781 18.2656C13.7344 18.4062 14.4375 18.5156 15.1719 18.5938C15.5937 19.2031 16.0469 19.75 16.5 20.2344C15.5625 21.1563 14.6094 21.7969 13.8437 21.7969C13.6719 21.7969 13.5313 21.7656 13.3906 21.6875C12.8594 21.3906 12.6875 20.4375 12.9062 19.1094ZM12.25 25.5469C12.5937 25.125 12.6094 24.6562 12.4219 24.1875C12.2344 23.7188 11.8437 23.5 11.3594 23.4844C10.7812 23.4687 10.1875 23.4844 9.60938 23.4844H9.5V27.5313H9.96875V26H10.7031C10.7969 26 10.875 26.0313 10.9219 26.1094L11.8594 27.5625C11.875 27.5937 11.9219 27.6406 11.9531 27.6406H12.5625C12.1875 27.0625 11.8281 26.5156 11.4531 25.9531C11.7812 25.9063 12.0625 25.7969 12.25 25.5469ZM9.96875 25.5156V23.9687H10.1406C10.5 23.9687 10.875 23.9531 11.2344 23.9844C11.6563 24 11.9531 24.3281 11.9531 24.75C11.9531 25.1719 11.6094 25.5 11.1875 25.5156C10.8125 25.5313 10.4375 25.5156 9.96875 25.5156ZM16.0156 25.7188C15.7656 24.625 14.7656 24.3438 14 24.6875C13.4062 24.9531 13.1406 25.4688 13.125 26.1094C13.1094 26.5938 13.25 27.0313 13.625 27.3594C14.0469 27.7344 14.5625 27.7813 15.0937 27.6875C15.3906 27.625 15.6562 27.4844 15.8594 27.2656C15.7812 27.1563 15.7031 27.0469 15.625 26.9531C15.1875 27.3281 14.7031 27.4531 14.1719 27.2031C13.8281 27.0313 13.6563 26.6094 13.625 26.2969H16.0469V26.0938C16.0625 25.9531 16.0469 25.8281 16.0156 25.7188ZM13.6562 25.9688C13.6094 25.5 14.0781 25 14.5938 25C15.1875 24.9844 15.5625 25.3438 15.5781 25.9688H13.6562ZM18.4531 24.6094C18.2188 24.5625 17.9687 24.5469 17.7344 24.5625C17.3594 24.5938 17.0313 24.7656 16.7656 25.0469C16.8438 25.1562 16.9063 25.2656 17 25.3906C17.0313 25.3594 17.0625 25.3281 17.0938 25.3125C17.3438 25.0781 17.6406 24.9531 18 24.9844C18.2813 25 18.5469 25.0937 18.625 25.375C18.6875 25.5937 18.6719 25.8281 18.6875 26.0625C18.6406 26.0625 18.625 26.0469 18.6094 26.0313C18.2344 25.7188 17.8125 25.6562 17.3594 25.7656C16.9375 25.875 16.6719 26.2031 16.6406 26.625C16.6094 27.1094 16.8281 27.4687 17.25 27.6406C17.5156 27.75 17.8125 27.75 18.0938 27.6875C18.3125 27.6406 18.4063 27.5156 18.7188 27.3438V27.5469H19.1563C19.1563 26.9219 19.1719 26.1562 19.1563 25.4375C19.1563 24.9844 18.8906 24.7031 18.4531 24.6094ZM18.6719 26.5781C18.6562 26.625 18.6719 26.6719 18.6719 26.7188C18.6719 27.0469 18.5937 27.1563 18.2812 27.2813C18.0625 27.3594 17.8281 27.3906 17.5938 27.3125C17.3281 27.2344 17.1406 27 17.1406 26.7344C17.125 26.4688 17.2969 26.2031 17.5625 26.125C17.9219 26 18.25 26.0781 18.5469 26.2969C18.6406 26.375 18.7031 26.4531 18.6719 26.5781ZM21.1094 25.0313C21.5156 24.9063 21.8906 24.9844 22.1719 25.3281L22.2188 25.3594C22.3281 25.2656 22.4219 25.1719 22.5469 25.0625C22.5 25.0156 22.4844 24.9844 22.4531 24.9375C22 24.4531 21.1094 24.3906 20.5625 24.7813C19.7969 25.3438 19.8125 26.4375 20.1875 27.0156C20.5469 27.5625 21.0625 27.75 21.6719 27.6719C22.0313 27.625 22.3281 27.4531 22.5625 27.1562C22.4531 27.0625 22.3438 26.9687 22.2344 26.8594C22.2031 26.8906 22.1875 26.9062 22.1719 26.9375C21.75 27.4062 21.0469 27.3594 20.6719 26.8594C20.4531 26.5625 20.4062 26.2188 20.4687 25.875C20.5 25.4844 20.7031 25.1719 21.1094 25.0313ZM24.3594 27.1562C24.3281 27.1719 24.3125 27.1875 24.3125 27.1875C24.1875 27.2813 24.0625 27.2969 23.9219 27.25C23.7813 27.1875 23.7656 27.0625 23.75 26.9375V25.1563C23.75 25.125 23.75 25.1875 23.7656 25.0313H24.3594V24.5625H23.7344V23.7813H23.2656V24.625H22.8594C22.8281 24.625 22.7813 24.6563 22.7813 24.6875C22.7656 24.7969 22.7813 24.875 22.7813 25.0313H23.2812V27.0313C23.2812 27.2813 23.3438 27.5 23.5625 27.625C23.7969 27.7656 24.25 27.7344 24.4531 27.5625C24.4844 27.5469 24.5 27.4844 24.5 27.4688C24.4531 27.375 24.4063 27.2656 24.3594 27.1562Z"
              fill="#61DAFB"/>
    </g>
    <defs>
        <clipPath id="clip0_7895_116">
            <rect width="34" height="35" fill="white"/>
        </clipPath>
    </defs>
</svg>
