<svg width="34" height="35" viewBox="0 0 34 35" fill="none" xmlns="http://www.w3.org/2000/svg">
    <g clip-path="url(#clip0_7895_120)">
        <path d="M17 35C26.3888 35 34 27.165 34 17.5C34 7.83502 26.3888 0 17 0C7.61116 0 0 7.83502 0 17.5C0 27.165 7.61116 35 17 35Z"
              fill="#657170"/>
        <g clip-path="url(#clip1_7895_120)">
            <path d="M25.1658 19.477C24.4687 19.4823 23.8649 19.7062 23.3586 20.0396C23.1716 19.5448 22.9847 19.1125 22.9535 18.7896C22.9185 18.4146 22.8756 18.1854 22.9185 17.7375C22.9613 17.2895 23.156 16.6541 23.156 16.602C23.1521 16.5552 23.1132 16.326 22.712 16.3208C22.3109 16.3156 21.9642 16.425 21.9252 16.5656C21.8863 16.7062 21.8084 17.0291 21.7577 17.3625C21.6876 17.852 20.9554 19.5864 20.5386 20.4979C20.4023 20.1437 20.2854 19.8312 20.262 19.5812C20.227 19.2062 20.1841 18.977 20.227 18.5291C20.2698 18.0812 20.4646 17.4458 20.4646 17.3937C20.4607 17.3468 20.4217 17.1177 20.0206 17.1125C19.6194 17.1073 19.2728 17.2166 19.2338 17.3573C19.1949 17.4979 19.152 17.8312 19.0663 18.1541C18.9845 18.477 18.0108 21.3729 17.7576 22.1281C17.629 22.5135 17.5161 22.8208 17.4343 23.0291C17.3525 23.2375 17.4304 23.0448 17.4226 23.0656C17.3525 23.2427 17.3135 23.3416 17.3135 23.3416V23.3469C17.259 23.4771 17.2006 23.602 17.1733 23.602C17.1538 23.602 17.1149 23.2531 17.1811 22.774C17.3252 21.7687 17.6757 20.2011 17.6719 20.1438C17.6719 20.1177 17.7381 19.8416 17.4459 19.7011C17.1616 19.5604 17.0604 19.7948 17.037 19.7948C17.0136 19.7948 16.9941 19.8781 16.9941 19.8781C16.9941 19.8781 17.3096 18.1126 16.3904 18.1126C15.8139 18.1126 15.0194 18.9511 14.626 19.7167C14.3767 19.899 13.847 20.2844 13.2861 20.6959C13.0719 20.8522 12.8498 21.0188 12.6395 21.1699L12.5967 21.1073C11.4827 19.5187 9.42228 18.3937 9.50797 16.2583C9.53913 15.4823 9.74167 13.4354 13.4653 10.9562C16.5151 8.92497 18.9573 9.48226 19.3818 10.7218C19.9855 12.4927 18.077 15.7843 14.9065 16.2583C13.699 16.4406 13.0641 15.8156 12.9045 15.5812C12.737 15.3364 12.7136 15.326 12.6513 15.3729C12.55 15.4458 12.6123 15.6645 12.6513 15.7948C12.7448 16.1229 13.1343 16.7062 13.7964 16.9979C14.3767 17.2531 15.7945 17.3937 17.5083 16.5083C19.4286 15.5135 20.9281 12.7531 20.488 10.4458C20.0401 8.09684 17.1266 7.32601 14.3729 8.6333C12.733 9.41455 10.9569 10.6333 9.67935 12.2323C8.16031 14.1281 7.91882 15.7843 8.02009 16.4718C8.37457 18.925 10.9024 20.5239 11.9151 21.7062C11.8644 21.7426 11.8177 21.7791 11.7749 21.8104C11.2685 22.1437 9.34049 23.4927 8.85751 24.9197C8.31221 26.5343 8.9432 27.6958 9.36386 27.852C10.6648 28.3364 11.9969 27.4666 12.7174 26.0343C13.4341 24.602 13.3484 22.7427 13.0174 21.8937L13.0056 21.8625L13.4029 21.55C13.66 21.3468 13.9132 21.1593 14.1352 20.9978C14.0106 21.451 13.921 21.9874 13.8743 22.7687C13.8197 23.6854 14.1002 24.8728 14.4702 25.3416C14.6338 25.5447 14.8285 25.5499 14.9493 25.5499C15.3777 25.5499 15.5725 25.0759 15.7867 24.5082C16.0516 23.8155 16.2853 23.0135 16.2853 23.0135C16.2853 23.0135 15.9931 25.1853 16.7916 25.1853C17.0837 25.1853 17.3759 24.6801 17.5083 24.4197V24.4249C17.5083 24.4249 17.5161 24.4093 17.5317 24.3728C17.548 24.3405 17.5636 24.3075 17.5784 24.2739V24.2635C17.6953 23.9927 17.9562 23.3729 18.3457 22.3468C18.8481 21.0239 19.3311 19.3677 19.3311 19.3677C19.3311 19.3677 19.3779 19.7739 19.522 20.4406C19.6077 20.8365 19.7946 21.2687 19.9387 21.6906C19.8219 21.9093 19.7518 22.0344 19.7518 22.0344L19.7557 22.0396C19.6622 22.2063 19.557 22.3834 19.448 22.5604C19.0507 23.1958 18.5755 23.9199 18.5132 24.1282C18.4392 24.3729 18.4548 24.5552 18.5989 24.7011C18.7041 24.8053 18.891 24.8261 19.0897 24.8053C19.448 24.774 19.6973 24.6542 19.8219 24.5813C20.0167 24.4875 20.2387 24.3469 20.4529 24.1386C20.8424 23.7532 21.08 23.2063 21.0566 22.4772C21.045 22.0761 20.9476 21.6803 20.8268 21.3053C20.8619 21.2376 20.897 21.1698 20.932 21.0969C21.5474 19.8938 22.0226 18.5709 22.0226 18.5709C22.0226 18.5709 22.0693 18.9772 22.2134 19.6438C22.2874 19.9824 22.4355 20.3522 22.5679 20.7168C21.9914 21.347 21.6292 22.0762 21.5046 22.5553C21.2748 23.4407 21.4539 23.8418 21.7928 23.9355C21.9447 23.9772 22.1628 23.8835 22.3264 23.7897C22.5289 23.7012 22.7743 23.5501 23.0002 23.3262C23.3897 22.9407 23.7636 22.4043 23.7442 21.6803C23.7325 21.347 23.6663 21.0189 23.5767 20.7064C24.0674 20.4355 24.7024 20.2793 25.5087 20.4095C27.2419 20.6803 27.5847 22.1282 27.5184 22.7324C27.4523 23.3366 27.0901 23.6699 26.9693 23.7741C26.8485 23.873 26.8096 23.9095 26.8213 23.9824C26.8369 24.0918 26.8913 24.0866 26.9965 24.0658C27.1406 24.0345 27.9079 23.571 27.9391 22.4565C27.9858 21.024 26.9693 19.4615 25.1658 19.477ZM11.7982 25.5031C11.2257 26.3416 10.4194 26.6593 10.0766 26.3885C9.70661 26.102 9.85069 24.8677 10.5557 23.977C10.9842 23.4354 11.5412 22.9354 11.9073 22.6281C11.9891 22.5604 12.1137 22.4615 12.2617 22.3416C12.2851 22.3209 12.3007 22.3104 12.3007 22.3104C12.328 22.2895 12.3591 22.2635 12.3903 22.2375C12.6512 23.5083 12.402 24.6229 11.7982 25.5031ZM15.9854 21.6958C15.7867 22.3468 15.366 24.0187 15.1129 23.925C14.8947 23.8468 14.7623 22.5812 15.07 21.3312C15.2258 20.701 15.5569 19.951 15.7516 19.6593C16.0671 19.1905 16.4099 19.0343 16.4956 19.227C16.5969 19.477 16.11 21.2895 15.9854 21.6958ZM19.4402 23.9041C19.3545 23.9615 19.2766 24.0031 19.2416 23.9719C19.2143 23.9511 19.2766 23.8729 19.2766 23.8729C19.2766 23.8729 19.7089 23.2531 19.8803 22.9667C19.9777 22.8001 20.0945 22.6074 20.2192 22.3886V22.4511C20.2192 23.201 19.6817 23.701 19.4402 23.9041ZM22.1043 23.0916C22.042 23.0291 22.0499 22.8364 22.2602 22.2323C22.342 21.9927 22.5289 21.5916 22.8522 21.2114C22.8911 21.3677 22.9146 21.5187 22.9106 21.6593C22.9068 22.5968 22.4082 22.9458 22.1043 23.0916Z"
                  fill="#CF649A"/>
        </g>
    </g>
    <defs>
        <clipPath id="clip0_7895_120">
            <rect width="34" height="35" fill="white"/>
        </clipPath>
        <clipPath id="clip1_7895_120">
            <rect width="20" height="20" fill="white" transform="translate(8 8)"/>
        </clipPath>
    </defs>
</svg>
