<svg width="48" height="48" viewBox="0 0 48 48" fill="none" xmlns="http://www.w3.org/2000/svg">
<path d="M40 21C39.4696 21 38.9608 21.2108 38.5858 21.5858C38.2108 21.9608 38 22.4696 38 23V37C38 37.5304 37.7892 38.0392 37.4142 38.4142C37.0392 38.7892 36.5304 39 36 39H8C7.46956 39 6.96086 38.7892 6.58578 38.4142C6.21072 38.0392 6 37.5304 6 37V21C6 20.4696 6.21072 19.9609 6.58578 19.5858C6.96086 19.2107 7.46956 19 8 19H12C12.4361 19.0228 12.8677 18.9021 13.2289 18.6566C13.59 18.411 13.8608 18.054 14 17.64L15.08 14.36C15.2142 13.9628 15.4698 13.6177 15.8107 13.3737C16.1517 13.1296 16.5607 12.9989 16.98 13H28C28.5304 13 29.0392 12.7893 29.4142 12.4142C29.7892 12.0391 30 11.5304 30 11C30 10.4696 29.7892 9.96086 29.4142 9.58578C29.0392 9.21072 28.5304 9 28 9H16.88C15.6231 9.00236 14.3987 9.39936 13.3795 10.135C12.3604 10.8707 11.598 11.9078 11.2 13.1L10.56 15.1H8C6.4087 15.1 4.88258 15.7321 3.75736 16.8574C2.63214 17.9826 2 19.5087 2 21.1V37.1C2 38.6912 2.63214 40.2174 3.75736 41.3426C4.88258 42.4678 6.4087 43.1 8 43.1H36C37.5912 43.1 39.1174 42.4678 40.2426 41.3426C41.3678 40.2174 42 38.6912 42 37.1V23.1C42.0136 22.829 41.9718 22.5582 41.8774 22.3038C41.783 22.0496 41.6378 21.8172 41.4508 21.6206C41.2636 21.4242 41.0386 21.268 40.7892 21.1612C40.5398 21.0546 40.2712 20.9996 40 21ZM22 19C20.4178 19 18.871 19.4692 17.5554 20.3482C16.2398 21.2272 15.2145 22.4768 14.609 23.9386C14.0035 25.4004 13.845 27.0088 14.1537 28.5608C14.4624 30.1126 15.2243 31.538 16.3431 32.6568C17.462 33.7756 18.8874 34.5376 20.4392 34.8462C21.9912 35.155 23.5996 34.9966 25.0614 34.391C26.5232 33.7856 27.7728 32.7602 28.6518 31.4446C29.5308 30.129 30 28.5822 30 27C30 24.8782 29.1572 22.8434 27.6568 21.3432C26.1566 19.8429 24.1218 19 22 19ZM22 31C21.2088 31 20.4356 30.7654 19.7777 30.3258C19.1199 29.8864 18.6072 29.2616 18.3045 28.5308C18.0017 27.7998 17.9225 26.9956 18.0769 26.2196C18.2312 25.4438 18.6122 24.731 19.1716 24.1716C19.731 23.6122 20.4438 23.2312 21.2196 23.0768C21.9956 22.9226 22.7998 23.0018 23.5308 23.3044C24.2616 23.6072 24.8864 24.12 25.3258 24.7778C25.7654 25.4356 26 26.2088 26 27C26 28.0608 25.5786 29.0782 24.8284 29.8284C24.0782 30.5786 23.0608 31 22 31ZM44 9H42V7C42 6.46956 41.7892 5.96086 41.4142 5.58578C41.0392 5.21072 40.5304 5 40 5C39.4696 5 38.9608 5.21072 38.5858 5.58578C38.2108 5.96086 38 6.46956 38 7V9H36C35.4696 9 34.9608 9.21072 34.5858 9.58578C34.2108 9.96086 34 10.4696 34 11C34 11.5304 34.2108 12.0391 34.5858 12.4142C34.9608 12.7893 35.4696 13 36 13H38V15C38 15.5304 38.2108 16.0391 38.5858 16.4142C38.9608 16.7893 39.4696 17 40 17C40.5304 17 41.0392 16.7893 41.4142 16.4142C41.7892 16.0391 42 15.5304 42 15V13H44C44.5304 13 45.0392 12.7893 45.4142 12.4142C45.7892 12.0391 46 11.5304 46 11C46 10.4696 45.7892 9.96086 45.4142 9.58578C45.0392 9.21072 44.5304 9 44 9Z" fill="black"/>
</svg>
