<svg width="48" height="48" viewBox="0 0 48 48" fill="none" xmlns="http://www.w3.org/2000/svg">
<path d="M34 4H14C12.4087 4 10.8826 4.63214 9.75736 5.75736C8.63214 6.88258 8 8.4087 8 10V38C8 39.5912 8.63214 41.1174 9.75736 42.2426C10.8826 43.3678 12.4087 44 14 44H34C35.5912 44 37.1174 43.3678 38.2426 42.2426C39.3678 41.1174 40 39.5912 40 38V10C40 8.4087 39.3678 6.88258 38.2426 5.75736C37.1174 4.63214 35.5912 4 34 4ZM36 38C36 38.5304 35.7892 39.0392 35.4142 39.4142C35.0392 39.7892 34.5304 40 34 40H14C13.4696 40 12.9609 39.7892 12.5858 39.4142C12.2107 39.0392 12 38.5304 12 38V10C12 9.46956 12.2107 8.96086 12.5858 8.58578C12.9609 8.21072 13.4696 8 14 8H34C34.5304 8 35.0392 8.21072 35.4142 8.58578C35.7892 8.96086 36 9.46956 36 10V38ZM25.42 32.58C25.189 32.3392 24.9016 32.16 24.5838 32.0586C24.2658 31.9574 23.9276 31.9372 23.6 32L23.24 32.12C23.1126 32.1638 22.9914 32.2244 22.88 32.3L22.58 32.54C22.398 32.7302 22.2552 32.9544 22.16 33.2C22.0068 33.5642 21.965 33.9656 22.0398 34.3536C22.1144 34.7416 22.3024 35.0988 22.58 35.38C22.779 35.556 23.001 35.704 23.24 35.82C23.6062 35.9706 24.0088 36.0092 24.3968 35.931C24.7848 35.8526 25.141 35.6608 25.42 35.38C25.7846 35.0124 25.9926 34.5178 26 34C26.0068 33.7376 25.952 33.4774 25.84 33.24C25.7388 32.9976 25.5966 32.7744 25.42 32.58Z" fill="black"/>
</svg>
