<svg width="48" height="48" viewBox="0 0 48 48" fill="none" xmlns="http://www.w3.org/2000/svg">
<path d="M42.96 26.259C42.9482 26.1212 42.9144 25.9862 42.86 25.859C42.8188 25.7404 42.7652 25.6264 42.7 25.519C42.6452 25.4054 42.5782 25.298 42.5 25.199L42.18 24.939L42 24.759L12.56 7.75908C12.0985 7.49386 11.5506 7.42284 11.0367 7.5616C10.5229 7.70038 10.0852 8.0376 9.82 8.49908C9.55478 8.96056 9.48376 9.50848 9.62252 10.0223C9.7613 10.5362 10.0985 10.9739 10.56 11.2391L33.54 24.499H7C6.46956 24.499 5.96086 24.7098 5.58578 25.0848C5.21072 25.46 5 25.9686 5 26.499V34.499C5 36.0904 5.63214 37.6166 6.75736 38.7418C7.88258 39.867 9.4087 40.499 11 40.499H37C38.5912 40.499 40.1174 39.867 41.2426 38.7418C42.3678 37.6166 43 36.0904 43 34.499V26.499C43 26.499 42.96 26.339 42.96 26.259ZM38.96 34.499C38.96 35.0296 38.7492 35.5382 38.3742 35.9132C37.9992 36.2884 37.4904 36.499 36.96 36.499H11C10.4696 36.499 9.96086 36.2884 9.58578 35.9132C9.21072 35.5382 9 35.0296 9 34.499V28.499H39L38.96 34.499ZM32.96 34.499C33.3556 34.499 33.7422 34.3818 34.0712 34.162C34.4 33.9422 34.6564 33.6298 34.8078 33.2644C34.9592 32.899 34.9988 32.4968 34.9216 32.1088C34.8444 31.721 34.654 31.3646 34.3742 31.0848C34.0946 30.8052 33.7382 30.6146 33.3502 30.5376C32.9622 30.4604 32.56 30.5 32.1946 30.6514C31.8292 30.8026 31.5168 31.059 31.297 31.388C31.0772 31.7168 30.96 32.1036 30.96 32.499C30.96 32.7652 31.013 33.0286 31.116 33.2738C31.219 33.519 31.3698 33.7414 31.5598 33.9276C31.7498 34.1138 31.975 34.2604 32.2224 34.3584C32.4696 34.4566 32.734 34.5044 33 34.499H32.96Z" fill="black"/>
</svg>
