<svg width="48" height="48" viewBox="0 0 48 48" fill="none" xmlns="http://www.w3.org/2000/svg">
<path d="M28.7542 7.70343C29.3572 8.05416 29.6389 8.7744 29.4337 9.44118L26.031 20.5H32.0001C32.5986 20.5 33.1398 20.8557 33.3771 21.405C33.5529 21.8116 33.537 22.2668 33.3507 22.6525C33.3168 22.7228 33.2772 22.7908 33.2322 22.8558C33.1902 22.916 33.1437 22.9736 33.0924 23.0281L17.0923 40.0281C16.6142 40.536 15.8489 40.6473 15.2459 40.2966C14.6428 39.9459 14.3612 39.2256 14.5664 38.559L17.9691 27.5H12C11.4016 27.5 10.8604 27.1443 10.6231 26.595C10.407 26.095 10.4803 25.5216 10.8045 25.0941C10.8365 25.0519 10.8709 25.0111 10.9078 24.9719L26.9077 7.97199C27.3859 7.46397 28.1511 7.35267 28.7542 7.70343Z" fill="black"/>
<path d="M6 12H18.9969L16.1734 15H6C4.34316 15 3 16.3432 3 18V30C3 31.6569 4.34316 33 6 33H13.1381L12.215 36H6C2.68629 36 0 33.3138 0 30V18C0 14.6863 2.68629 12 6 12Z" fill="black"/>
<path d="M6 18H13.3499L8.72319 22.9158C7.49277 24.2231 7.15713 26.1368 7.86921 27.7848C8.29074 28.7604 9.03165 29.5324 9.93855 30H6V18Z" fill="black"/>
<path d="M31.7853 12L30.8622 15H36C37.6569 15 39 16.3432 39 18V30C39 31.6569 37.6569 33 36 33H27.8267L25.0032 36H36C39.3138 36 42 33.3138 42 30V18C42 14.6863 39.3138 12 36 12H31.7853Z" fill="black"/>
<path d="M36 30H30.6504L35.277 25.0841C35.5692 24.7737 35.8107 24.4292 36 24.0621V30Z" fill="black"/>
<path d="M36 19.9381V18H34.0617C34.881 18.4224 35.5647 19.0932 36 19.9381Z" fill="black"/>
<path d="M48 24C48 26.4853 45.9852 28.5 43.5 28.5V19.5C45.9852 19.5 48 21.5147 48 24Z" fill="black"/>
</svg>
