<svg width="48" height="48" viewBox="0 0 48 48" fill="none" xmlns="http://www.w3.org/2000/svg">
<g clip-path="url(#clip0_212_52)">
<path d="M18 9C18 13.9705 13.9705 18 9 18C4.02945 18 0 13.9705 0 9C0 4.02945 4.02945 0 9 0C13.9705 0 18 4.02945 18 9ZM3 9C3 12.3137 5.68629 15 9 15C12.3137 15 15 12.3137 15 9C15 5.68629 12.3137 3 9 3C5.68629 3 3 5.68629 3 9Z" fill="black"/>
<path d="M27 18H28.5C31.5474 18 34.0644 20.272 34.449 23.2145L43.7817 19.0667C45.7653 18.185 48 19.6372 48 21.8081V44.1918C48 46.3629 45.7653 47.8149 43.7817 46.9332L34.449 42.7854C34.0644 45.7281 31.5474 48 28.5 48H6C2.68629 48 0 45.3138 0 42V24C0 20.6863 2.68629 18 6 18H9H27ZM45 44.1918V21.8081L34.5 26.4748V39.5253L45 44.1918ZM3 24V42C3 43.6569 4.34316 45 6 45H28.5C30.1569 45 31.5 43.6569 31.5 42V24C31.5 22.3432 30.1569 21 28.5 21H6C4.34316 21 3 22.3432 3 24Z" fill="black"/>
<path d="M27 18C31.9707 18 36 13.9705 36 9C36 4.02945 31.9707 0 27 0C22.0295 0 18 4.02945 18 9C18 13.9705 22.0295 18 27 18ZM21 9C21 5.68629 23.6863 3 27 3C30.3138 3 33 5.68629 33 9C33 12.3137 30.3138 15 27 15C23.6863 15 21 12.3137 21 9Z" fill="black"/>
</g>
<defs>
<clipPath id="clip0_212_52">
<rect width="48" height="48" fill="white"/>
</clipPath>
</defs>
</svg>
