<svg width="48" height="48" viewBox="0 0 48 48" fill="none" xmlns="http://www.w3.org/2000/svg">
<path d="M37.8548 0H10.0541C7.07013 0.00337838 4.65206 2.42145 4.64868 5.40541V42.5946C4.65206 45.5785 7.07013 47.9966 10.0541 48H37.8548C40.8387 47.9966 43.2568 45.5785 43.2602 42.5946V5.40541C43.2568 2.42145 40.8387 0.00337838 37.8548 0ZM41.098 42.5946C41.0963 44.3851 39.6453 45.8357 37.8548 45.8378H10.0541C8.26355 45.8357 6.81296 44.3851 6.81084 42.5946V5.40541C6.81296 3.61487 8.26355 2.16427 10.0541 2.16216H37.8548C39.6453 2.16427 41.0963 3.61487 41.098 5.40541V42.5946Z" fill="black"/>
<path d="M24.0147 20.4883C17.7052 20.4883 12.5903 25.6031 12.5903 31.9127C12.5903 38.2222 17.7052 43.3371 24.0147 43.3371C30.3243 43.3371 35.4391 38.2222 35.4391 31.9127C35.432 25.6061 30.3213 20.4955 24.0147 20.4883ZM24.0147 41.1749C18.8995 41.1749 14.7525 37.028 14.7525 31.9127C14.7525 26.7974 18.8995 22.6504 24.0147 22.6504C29.13 22.6504 33.277 26.7974 33.277 31.9127C33.2711 37.0259 29.1279 41.169 24.0147 41.1749Z" fill="black"/>
<path d="M24.0148 19.1486C27.8641 19.1486 30.9848 16.0278 30.9848 12.1786C30.9848 8.32934 27.8641 5.20898 24.0148 5.20898C20.1656 5.20898 17.0448 8.32934 17.0448 12.1786C17.0494 16.0261 20.1673 19.1444 24.0148 19.1486ZM24.0148 7.37115C26.6702 7.37115 28.8227 9.5236 28.8227 12.1786C28.8227 14.834 26.6702 16.9864 24.0148 16.9864C21.3598 16.9864 19.207 14.834 19.207 12.1786C19.2103 9.52486 21.3607 7.3741 24.0148 7.37115Z" fill="black"/>
<path d="M23.9544 27.0859C21.2888 27.0859 19.1279 29.2468 19.1279 31.9124C19.1279 34.5779 21.2888 36.7388 23.9544 36.7388C26.6199 36.7388 28.7812 34.5779 28.7812 31.9124C28.7778 29.2481 26.6186 27.0889 23.9544 27.0859ZM23.9544 34.5766C22.4831 34.5766 21.2901 33.3837 21.2901 31.9124C21.2901 30.4407 22.4831 29.2481 23.9544 29.2481C25.4261 29.2481 26.6191 30.4407 26.6191 31.9124C26.6174 33.3832 25.4252 34.575 23.9544 34.5766Z" fill="black"/>
</svg>
