<svg width="48" height="48" viewBox="0 0 48 48" fill="none" xmlns="http://www.w3.org/2000/svg">
<path d="M13.5 33C14.3284 33 15 32.3283 15 31.5C15 30.6717 14.3284 30 13.5 30C12.6716 30 12 30.6717 12 31.5C12 32.3283 12.6716 33 13.5 33Z" fill="black"/>
<path d="M9 31.5C9 32.3283 8.32842 33 7.5 33C6.67158 33 6 32.3283 6 31.5C6 30.6717 6.67158 30 7.5 30C8.32842 30 9 30.6717 9 31.5Z" fill="black"/>
<path d="M48 33C48 36.3138 45.3138 39 42 39H6C2.68629 39 0 36.3138 0 33V28.53C0 27.2751 0.314874 26.0402 0.915783 24.9386L8.33037 11.3452C9.11892 9.89949 10.6342 9 12.2809 9H35.7192C37.3659 9 38.8812 9.89949 39.6696 11.3452L47.0841 24.9386C47.685 26.0402 48 27.2751 48 28.53V33ZM10.9641 12.7817L4.77696 24.1247C5.17182 24.043 5.5809 24 6 24H42C42.4191 24 42.8283 24.043 43.2231 24.1247L37.0359 12.7817C36.7731 12.2998 36.2679 12 35.7192 12H12.2809C11.732 12 11.2269 12.2998 10.9641 12.7817ZM3 30V33C3 34.6569 4.34316 36 6 36H42C43.6569 36 45 34.6569 45 33V30C45 28.3432 43.6569 27 42 27H6C4.34316 27 3 28.3432 3 30Z" fill="black"/>
</svg>
