<svg width="48" height="48" viewBox="0 0 48 48" fill="none" xmlns="http://www.w3.org/2000/svg">
<path d="M36 7.5C36 8.32842 35.3283 9 34.5 9C33.6717 9 33 8.32842 33 7.5C33 6.67158 33.6717 6 34.5 6C35.3283 6 36 6.67158 36 7.5Z" fill="black"/>
<path d="M36 40.5C36 41.3283 35.3283 42 34.5 42C33.6717 42 33 41.3283 33 40.5C33 39.6717 33.6717 39 34.5 39C35.3283 39 36 39.6717 36 40.5Z" fill="black"/>
<path d="M13.5 42C14.3284 42 15 41.3283 15 40.5C15 39.6717 14.3284 39 13.5 39C12.6716 39 12 39.6717 12 40.5C12 41.3283 12.6716 42 13.5 42Z" fill="black"/>
<path d="M15 7.5C15 8.32842 14.3284 9 13.5 9C12.6716 9 12 8.32842 12 7.5C12 6.67158 12.6716 6 13.5 6C14.3284 6 15 6.67158 15 7.5Z" fill="black"/>
<path d="M24 24C25.6568 24 27 22.6568 27 21C27 19.3432 25.6568 18 24 18C22.3432 18 21 19.3432 21 21C21 22.6568 22.3432 24 24 24Z" fill="black"/>
<path d="M36 21C36 27.5639 30.7299 32.8971 24.19 32.9985C22.5767 35.4381 21.1318 37.5453 20.6458 38.0313C19.3542 39.3228 17.2602 39.3228 15.9687 38.0313C14.6771 36.7398 14.6771 34.6458 15.9687 33.3543C16.2632 33.0597 17.1531 32.4129 18.3515 31.5903C14.5717 29.5699 12 25.5853 12 21C12 14.3726 17.3726 9 24 9C30.6273 9 36 14.3726 36 21ZM33 21C33 16.0295 28.9705 12 24 12C19.0295 12 15 16.0295 15 21C15 25.0393 17.6609 28.457 21.3255 29.596C23.3293 28.2744 25.5148 26.8647 27.1909 25.7908C27.8646 25.3591 28.6409 26.1354 28.2092 26.8091C27.6598 27.6666 27.0225 28.6574 26.3541 29.689C30.183 28.6542 33 25.156 33 21Z" fill="black"/>
<path d="M6 6C6 2.68629 8.68629 0 12 0H36C39.3138 0 42 2.68629 42 6V42C42 45.3138 39.3138 48 36 48H12C8.68629 48 6 45.3138 6 42V6ZM12 3C10.3432 3 9 4.34316 9 6V42C9 43.6569 10.3432 45 12 45H36C37.6569 45 39 43.6569 39 42V6C39 4.34316 37.6569 3 36 3H12Z" fill="black"/>
</svg>
