<svg width="48" height="48" viewBox="0 0 48 48" fill="none" xmlns="http://www.w3.org/2000/svg">
<path d="M42 28H40V14C40 12.4087 39.3678 10.8826 38.2426 9.75736C37.1174 8.63214 35.5912 8 34 8H14C12.4087 8 10.8826 8.63214 9.75736 9.75736C8.63214 10.8826 8 12.4087 8 14V28H6C5.46956 28 4.96086 28.2108 4.58578 28.5858C4.21072 28.9608 4 29.4696 4 30V34C4 35.5912 4.63214 37.1174 5.75736 38.2426C6.88258 39.3678 8.4087 40 10 40H38C39.5912 40 41.1174 39.3678 42.2426 38.2426C43.3678 37.1174 44 35.5912 44 34V30C44 29.4696 43.7892 28.9608 43.4142 28.5858C43.0392 28.2108 42.5304 28 42 28ZM12 14C12 13.4696 12.2107 12.9609 12.5858 12.5858C12.9609 12.2107 13.4696 12 14 12H34C34.5304 12 35.0392 12.2107 35.4142 12.5858C35.7892 12.9609 36 13.4696 36 14V28H12V14ZM40 34C40 34.5304 39.7892 35.0392 39.4142 35.4142C39.0392 35.7892 38.5304 36 38 36H10C9.46956 36 8.96086 35.7892 8.58578 35.4142C8.21072 35.0392 8 34.5304 8 34V32H40V34Z" fill="black"/>
</svg>
