<svg width="48" height="48" viewBox="0 0 48 48" fill="none" xmlns="http://www.w3.org/2000/svg">
<path d="M4.5 13.5C4.5 12.6716 5.17158 12 6 12H46.5C47.3283 12 48 12.6716 48 13.5V21C48 21.8284 47.3283 22.5 46.5 22.5C45.6717 22.5 45 23.1716 45 24C45 24.8284 45.6717 25.5 46.5 25.5C47.3283 25.5 48 26.1716 48 27V34.5C48 35.3283 47.3283 36 46.5 36H6C5.17158 36 4.5 35.3283 4.5 34.5H1.5C0.671574 34.5 0 33.8283 0 33V22.5C0 21.6716 0.671574 21 1.5 21H4.5C4.91421 21 5.25 20.6642 5.25 20.25C5.25 19.8358 4.91421 19.5 4.5 19.5H1.5C0.671574 19.5 0 18.8284 0 18V15C0 14.1716 0.671574 13.5 1.5 13.5H4.5ZM7.5 15C7.5 15.8284 6.82842 16.5 6 16.5H4.5C6.57108 16.5 8.25 18.1789 8.25 20.25C8.25 22.3211 6.57108 24 4.5 24H3V31.5H6C6.82842 31.5 7.5 32.1717 7.5 33H45V28.2439C43.2522 27.6262 42 25.9593 42 24C42 22.0407 43.2522 20.3738 45 19.7561V15H7.5Z" fill="black"/>
<path d="M12 19.5C12 18.6716 12.6716 18 13.5 18H19.5C20.3284 18 21 18.6716 21 19.5V28.5C21 29.3284 20.3284 30 19.5 30H13.5C12.6716 30 12 29.3284 12 28.5V19.5ZM15 21V27H18V21H15ZM24 19.5C24 18.6716 24.6716 18 25.5 18H37.5C38.3283 18 39 18.6716 39 19.5V28.5C39 29.3284 38.3283 30 37.5 30H25.5C24.6716 30 24 29.3284 24 28.5V19.5ZM27 21V27H36V21H27Z" fill="black"/>
</svg>
