<svg width="48" height="48" viewBox="0 0 48 48" fill="none" xmlns="http://www.w3.org/2000/svg">
<path d="M33.75 4.5H14.25C13.6533 4.5 13.081 4.73705 12.659 5.15901C12.2371 5.58097 12 6.15326 12 6.75V43.5H36V6.75C36 6.15326 35.7629 5.58097 35.341 5.15901C34.919 4.73705 34.3467 4.5 33.75 4.5ZM14.25 6H33.75C33.9489 6 34.1397 6.07902 34.2803 6.21967C34.421 6.36032 34.5 6.55109 34.5 6.75V28.5H13.5V6.75C13.5 6.55109 13.579 6.36032 13.7197 6.21967C13.8603 6.07902 14.0511 6 14.25 6ZM13.5 42V30H34.5V42H13.5Z" fill="black"/>
<path d="M16.5 31.5H15V36H16.5V31.5Z" fill="black"/>
<path d="M16.5 22.5H15V27H16.5V22.5Z" fill="black"/>
</svg>
