<svg width="48" height="48" viewBox="0 0 48 48" fill="none" xmlns="http://www.w3.org/2000/svg">
<path d="M18.75 10.5C18.75 9.25737 17.7426 8.25 16.5 8.25C15.2574 8.25 14.25 9.25737 14.25 10.5V16.5C14.25 17.7426 15.2574 18.75 16.5 18.75C17.7426 18.75 18.75 17.7426 18.75 16.5V10.5Z" fill="black"/>
<path d="M24.75 10.5C24.75 9.25737 23.7426 8.25 22.5 8.25C21.2574 8.25 20.25 9.25737 20.25 10.5V16.5C20.25 17.7426 21.2574 18.75 22.5 18.75C23.7426 18.75 24.75 17.7426 24.75 16.5V10.5Z" fill="black"/>
<path d="M30.75 10.5C30.75 9.25737 29.7426 8.25 28.5 8.25C27.2574 8.25 26.25 9.25737 26.25 10.5V16.5C26.25 17.7426 27.2574 18.75 28.5 18.75C29.7426 18.75 30.75 17.7426 30.75 16.5V10.5Z" fill="black"/>
<path d="M36.75 10.5C36.75 9.25737 35.7426 8.25 34.5 8.25C33.2574 8.25 32.25 9.25737 32.25 10.5V16.5C32.25 17.7426 33.2574 18.75 34.5 18.75C35.7426 18.75 36.75 17.7426 36.75 16.5V10.5Z" fill="black"/>
<path d="M17.7426 0H37.5C39.9852 0 42 2.01472 42 4.5V43.5C42 45.9852 39.9852 48 37.5 48H10.5C8.01471 48 6 45.9852 6 43.5V11.7426C6 10.5492 6.47412 9.40458 7.31802 8.56065L14.5606 1.31802C15.4046 0.474105 16.5492 0 17.7426 0ZM39 4.5C39 3.67158 38.3283 3 37.5 3H17.7426C17.3448 3 16.9633 3.15804 16.682 3.43935L9.43935 10.682C9.15804 10.9633 9 11.3448 9 11.7426V43.5C9 44.3283 9.67158 45 10.5 45H37.5C38.3283 45 39 44.3283 39 43.5V4.5Z" fill="black"/>
</svg>
