<svg width="48" height="48" viewBox="0 0 48 48" fill="none" xmlns="http://www.w3.org/2000/svg">
<path d="M38 6H10C8.4087 6 6.88258 6.63214 5.75736 7.75736C4.63214 8.88258 4 10.4087 4 12V28C4 29.5912 4.63214 31.1174 5.75736 32.2426C6.88258 33.3678 8.4087 34 10 34H22V38H14C13.4696 38 12.9609 38.2108 12.5858 38.5858C12.2107 38.9608 12 39.4696 12 40C12 40.5304 12.2107 41.0392 12.5858 41.4142C12.9609 41.7892 13.4696 42 14 42H34C34.5304 42 35.0392 41.7892 35.4142 41.4142C35.7892 41.0392 36 40.5304 36 40C36 39.4696 35.7892 38.9608 35.4142 38.5858C35.0392 38.2108 34.5304 38 34 38H26V34H38C39.5912 34 41.1174 33.3678 42.2426 32.2426C43.3678 31.1174 44 29.5912 44 28V12C44 10.4087 43.3678 8.88258 42.2426 7.75736C41.1174 6.63214 39.5912 6 38 6ZM40 28C40 28.5304 39.7892 29.0392 39.4142 29.4142C39.0392 29.7892 38.5304 30 38 30H10C9.46956 30 8.96086 29.7892 8.58578 29.4142C8.21072 29.0392 8 28.5304 8 28V12C8 11.4696 8.21072 10.9609 8.58578 10.5858C8.96086 10.2107 9.46956 10 10 10H38C38.5304 10 39.0392 10.2107 39.4142 10.5858C39.7892 10.9609 40 11.4696 40 12V28Z" fill="black"/>
</svg>
