<svg width="48" height="48" viewBox="0 0 48 48" fill="none" xmlns="http://www.w3.org/2000/svg">
<path d="M43.06 14.3C42.756 14.1245 42.411 14.0321 42.06 14.0321C41.709 14.0321 41.364 14.1245 41.06 14.3L34 17.78C33.943 16.2271 33.2858 14.7569 32.1668 13.6789C31.0476 12.6008 29.554 11.999 28 12H10C8.4087 12 6.88258 12.6321 5.75736 13.7574C4.63214 14.8826 4 16.4087 4 18V30C4 31.5914 4.63214 33.1174 5.75736 34.2426C6.88258 35.3678 8.4087 36 10 36H28C29.554 36.001 31.0476 35.3992 32.1668 34.3212C33.2858 33.243 33.943 31.7728 34 30.22L41.12 33.78C41.3926 33.9198 41.6936 33.995 42 34C42.3744 34.0012 42.7418 33.8972 43.06 33.7C43.3482 33.5198 43.5858 33.2692 43.7502 32.9718C43.9148 32.6744 44.0006 32.3398 44 32V16C44.0006 15.6601 43.9148 15.3257 43.7502 15.0282C43.5858 14.7308 43.3482 14.4801 43.06 14.3ZM30 30C30 30.5304 29.7892 31.0392 29.4142 31.4142C29.0392 31.7892 28.5304 32 28 32H10C9.46956 32 8.96086 31.7892 8.58578 31.4142C8.21072 31.0392 8 30.5304 8 30V18C8 17.4696 8.21072 16.9609 8.58578 16.5858C8.96086 16.2107 9.46956 16 10 16H28C28.5304 16 29.0392 16.2107 29.4142 16.5858C29.7892 16.9609 30 17.4696 30 18V30ZM40 28.76L34 25.76V22.24L40 19.24V28.76Z" fill="black"/>
</svg>
