<svg width="26" height="31" viewBox="0 0 26 31" fill="none" xmlns="http://www.w3.org/2000/svg">
<path d="M16.3648 17.5488C16.16 17.4912 15.9296 17.5808 15.8208 17.7728L12.9152 22.8032L10.0096 17.7728C9.9008 17.5808 9.6768 17.4912 9.4656 17.5488C3.936 19.0784 0.0448 24.16 0 29.9072C0 30.0352 0.0511999 30.1568 0.1408 30.2464C0.2304 30.336 0.352 30.3872 0.48 30.3872H25.344C25.472 30.3872 25.5936 30.336 25.6832 30.2464C25.7728 30.1568 25.824 30.0352 25.824 29.9072C25.7856 24.16 21.8944 19.0784 16.3648 17.5488ZM20.9856 29.4336V27.0272C20.9856 26.7648 20.768 26.5472 20.5056 26.5472C20.2432 26.5472 20.0256 26.7648 20.0256 27.0272V29.4336H5.8048V27.0272C5.8048 26.7648 5.5872 26.5472 5.3248 26.5472C5.0624 26.5472 4.8448 26.7648 4.8448 27.0272V29.4336H0.9728C1.2096 24.4352 4.5888 20.064 9.3696 18.5792L12.4992 24.0064C12.5824 24.1536 12.7424 24.2496 12.9152 24.2496C13.088 24.2496 13.248 24.16 13.3312 24.0064L16.4608 18.5792C21.2352 20.0576 24.6144 24.4352 24.8512 29.4272H20.9856V29.4336Z" fill="black"/>
<path d="M4.704 9.952L6.944 10.3744C7.0656 10.784 7.2256 11.1744 7.4304 11.552L6.144 13.44C6.016 13.632 6.0352 13.888 6.2016 14.048L7.456 15.3024C7.6224 15.4624 7.8784 15.488 8.064 15.36L9.952 14.0736C10.3296 14.2784 10.72 14.4448 11.1296 14.56L11.552 16.8064C11.5968 17.0304 11.7952 17.1968 12.0256 17.1968H13.7984C14.0288 17.1968 14.2272 17.0304 14.272 16.8064L14.6944 14.56C15.104 14.4384 15.4944 14.2784 15.872 14.0736L17.76 15.36C17.952 15.488 18.208 15.4688 18.368 15.3024L19.6224 14.048C19.7824 13.888 19.808 13.632 19.68 13.44L18.3936 11.552C18.5984 11.1744 18.7648 10.784 18.88 10.3744L21.12 9.952C21.344 9.9072 21.5104 9.7088 21.5104 9.4784V7.7056C21.5104 7.4752 21.344 7.2768 21.12 7.232L18.88 6.8096C18.7584 6.4 18.5984 6.0096 18.3936 5.632L19.68 3.7504C19.808 3.5584 19.7888 3.3024 19.6224 3.1424L18.368 1.888C18.2016 1.7216 17.9456 1.7024 17.7536 1.8304L15.872 3.1232C15.5008 2.9184 15.104 2.7584 14.6944 2.6368L14.272 0.3904C14.2272 0.1664 14.0288 0 13.7984 0H12.0256C11.7952 0 11.5968 0.1664 11.552 0.3904L11.1296 2.6368C10.72 2.7584 10.3232 2.9184 9.952 3.1232L8.0704 1.8304C7.8784 1.7024 7.6224 1.7216 7.456 1.888L6.2016 3.1424C6.0416 3.3024 6.016 3.5584 6.144 3.7504L7.4304 5.632C7.2256 6.0096 7.0592 6.4 6.944 6.8096L4.704 7.232C4.48 7.2768 4.3136 7.4752 4.3136 7.7056V9.4784C4.3136 9.7088 4.48 9.9072 4.704 9.952ZM5.2736 8.1024L7.4176 7.6992C7.6032 7.6672 7.7504 7.52 7.7952 7.3408C7.9168 6.8224 8.1216 6.3296 8.4032 5.8688C8.5056 5.7088 8.4992 5.504 8.3904 5.344L7.1616 3.5392L7.8528 2.848L9.6576 4.0832C9.8176 4.192 10.016 4.192 10.1824 4.096C10.6368 3.8144 11.136 3.6096 11.6608 3.488C11.8464 3.4432 11.9872 3.296 12.0192 3.1104L12.4224 0.96H13.4016L13.8048 3.1104C13.8368 3.296 13.984 3.4432 14.1632 3.488C14.688 3.616 15.1872 3.8208 15.6416 4.096C15.8016 4.1984 16.0064 4.192 16.1664 4.0832L17.9712 2.848L18.6624 3.5392L17.4336 5.344C17.3248 5.4976 17.3248 5.7024 17.4208 5.8688C17.7024 6.3296 17.9072 6.8224 18.0288 7.3408C18.0736 7.5264 18.2208 7.6672 18.4064 7.6992L20.5504 8.1024V9.0816L18.4064 9.4848C18.2208 9.5168 18.0736 9.664 18.0288 9.8432C17.9072 10.3616 17.7024 10.8608 17.4208 11.3152C17.3184 11.4752 17.3248 11.68 17.4336 11.84L18.6688 13.6512L17.9776 14.3424L16.1664 13.1072C16.0128 12.9984 15.808 12.9984 15.648 13.0944C15.1872 13.376 14.6944 13.5808 14.176 13.7024C13.9904 13.7472 13.8496 13.8944 13.8176 14.08L13.4144 16.2304H12.4352L12.032 14.08C12 13.8944 11.8528 13.7472 11.6736 13.7024C11.1552 13.5808 10.6624 13.376 10.2016 13.0944C10.0416 12.9984 9.8368 12.9984 9.6832 13.1072L7.872 14.3424L7.1808 13.6512L8.416 11.84C8.5248 11.6864 8.5248 11.4816 8.4288 11.3152C8.1472 10.8608 7.9424 10.3616 7.8208 9.8432C7.776 9.6576 7.6288 9.5168 7.4432 9.4848L5.2992 9.0816V8.1024H5.2736Z" fill="black"/>
<path d="M12.9152 11.7312C14.6496 11.7312 16.0576 10.3232 16.0576 8.58881C16.0576 6.85441 14.6496 5.44641 12.9152 5.44641C11.1808 5.44641 9.7728 6.86081 9.7728 8.59521C9.7728 10.3296 11.1872 11.7312 12.9152 11.7312ZM12.9152 6.41281C14.1184 6.41281 15.0976 7.39201 15.0976 8.59521C15.0976 9.79841 14.1184 10.7776 12.9152 10.7776C11.712 10.7776 10.7328 9.79841 10.7328 8.59521C10.7328 7.39201 11.712 6.41281 12.9152 6.41281Z" fill="black"/>
</svg>
