<svg width="25" height="25" viewBox="0 0 25 25" fill="none" xmlns="http://www.w3.org/2000/svg">
    <mask id="path-1-inside-1_7952_43" fill="white">
        <path d="M2.10501 2.31716C4.91185 -0.772386 9.46322 -0.772386 12.2701 2.31716L12.2859 2.33455C12.4053 2.46566 12.6115 2.46575 12.731 2.33474C15.5378 -0.754574 20.0883 -0.75467 22.8951 2.33474C25.7019 5.42428 25.7019 10.4337 22.8951 13.5232L22.6985 13.7387C22.6837 13.755 22.6836 13.7798 22.6983 13.7962C22.713 13.8125 22.7129 13.8373 22.6981 13.8536L12.5863 24.9846C12.5722 25.0001 12.5479 25.0001 12.5338 24.9847C12.5196 24.9693 12.4952 24.9694 12.4812 24.985L12.4737 24.9934C12.4557 25.0135 12.4242 25.0136 12.406 24.9936L2.30984 13.8799C2.29056 13.8587 2.29045 13.8263 2.30958 13.805C2.32873 13.7836 2.3286 13.7512 2.30929 13.73L2.10501 13.5056C-0.701747 10.4162 -0.701595 5.40672 2.10501 2.31716Z"/>
    </mask>
    <path d="M2.10501 2.31716L0.624694 0.972296L0.624635 0.97236L2.10501 2.31716ZM12.2701 2.31716L10.7897 3.66202L10.7912 3.6636L12.2701 2.31716ZM12.731 2.33474L14.2087 3.68244L14.2113 3.67965L12.731 2.33474ZM22.8951 2.33474L24.3754 0.989874L24.3754 0.989856L22.8951 2.33474ZM22.8951 13.5232L24.3728 14.8709L24.3754 14.8681L22.8951 13.5232ZM2.10501 13.5056L0.624693 14.8505L0.626132 14.8521L2.10501 13.5056ZM2.30958 13.805L0.820114 12.4703L2.30958 13.805ZM2.30929 13.73L0.830407 15.0764L2.30929 13.73ZM2.30984 13.8799L3.7902 12.5351L2.30984 13.8799ZM12.4737 24.9934L13.9632 26.3281L12.4737 24.9934ZM12.406 24.9936L10.9256 26.3384L12.406 24.9936ZM12.5338 24.9847L11.0585 26.3351L12.5338 24.9847ZM12.4812 24.985L13.9707 26.3197L12.4812 24.985ZM12.5863 24.9846L11.1059 23.6398L12.5863 24.9846ZM22.6985 13.7387L21.2208 12.391L22.6985 13.7387ZM22.6983 13.7962L21.2105 15.1327L22.6983 13.7962ZM22.6981 13.8536L21.2178 12.5088L22.6981 13.8536ZM12.2859 2.33455L10.807 3.68099L12.2859 2.33455ZM2.10501 2.31716L3.58533 3.66202C5.59858 1.44599 8.77648 1.44599 10.7897 3.66202L12.2701 2.31716L13.7504 0.972296C10.15 -2.99077 4.22511 -2.99077 0.624694 0.972296L2.10501 2.31716ZM12.2701 2.31716L10.7912 3.6636L10.807 3.68099L12.2859 2.33455L13.7648 0.988104L13.7489 0.970714L12.2701 2.31716ZM12.731 2.33474L14.2113 3.67965C16.2245 1.46375 19.4016 1.46374 21.4147 3.67962L22.8951 2.33474L24.3754 0.989856C20.775 -2.97309 14.8511 -2.97289 11.2507 0.989819L12.731 2.33474ZM22.8951 2.33474L21.4147 3.6796C23.5287 6.00644 23.5287 9.8515 21.4147 12.1784L22.8951 13.5232L24.3754 14.8681C27.8751 11.0158 27.8751 4.84212 24.3754 0.989874L22.8951 2.33474ZM22.8951 13.5232L21.4173 12.1755L21.2208 12.391L22.6985 13.7387L24.1763 15.0864L24.3728 14.8709L22.8951 13.5232ZM22.6981 13.8536L21.2178 12.5088L11.1059 23.6398L12.5863 24.9846L14.0666 26.3295L24.1785 15.1984L22.6981 13.8536ZM12.4812 24.985L10.9917 23.6503L10.9843 23.6586L12.4737 24.9934L13.9632 26.3281L13.9707 26.3197L12.4812 24.985ZM12.406 24.9936L13.8863 23.6488L3.7902 12.5351L2.30984 13.8799L0.829479 15.2247L10.9256 26.3384L12.406 24.9936ZM2.30929 13.73L3.78817 12.3836L3.58389 12.1592L2.10501 13.5056L0.626132 14.8521L0.830407 15.0764L2.30929 13.73ZM2.10501 13.5056L3.58533 12.1608C1.47153 9.83407 1.47156 5.9889 3.58539 3.66196L2.10501 2.31716L0.624635 0.97236C-2.87475 4.82455 -2.87503 10.9983 0.624694 14.8505L2.10501 13.5056ZM2.30958 13.805L3.79905 15.1397C4.50294 14.3542 4.49823 13.1635 3.78817 12.3836L2.30929 13.73L0.830407 15.0764C0.15897 14.339 0.154521 13.213 0.820114 12.4703L2.30958 13.805ZM2.30984 13.8799L3.7902 12.5351C4.46028 13.2727 4.46409 14.3975 3.79905 15.1397L2.30958 13.805L0.820114 12.4703C0.116812 13.2551 0.120845 14.4447 0.829479 15.2247L2.30984 13.8799ZM12.4737 24.9934L10.9843 23.6586C11.7575 22.7958 13.1073 22.7912 13.8863 23.6488L12.406 24.9936L10.9256 26.3384C11.741 27.236 13.1539 27.2312 13.9632 26.3281L12.4737 24.9934ZM12.5338 24.9847L14.0092 23.6344C13.1965 22.7465 11.795 22.7539 10.9917 23.6503L12.4812 24.985L13.9707 26.3197C13.1954 27.1849 11.8428 27.192 11.0585 26.3351L12.5338 24.9847ZM12.5863 24.9846L11.1059 23.6398C11.8834 22.7839 13.2284 22.7814 14.0092 23.6344L12.5338 24.9847L11.0585 26.3351C11.8674 27.2189 13.261 27.2163 14.0666 26.3295L12.5863 24.9846ZM22.6985 13.7387L21.2208 12.391C20.5135 13.1665 20.509 14.3519 21.2105 15.1327L22.6983 13.7962L24.1861 12.4597C24.8582 13.2078 24.8539 14.3434 24.1763 15.0864L22.6985 13.7387ZM22.6983 13.7962L21.2105 15.1327C20.5394 14.3857 20.5426 13.252 21.2178 12.5088L22.6981 13.8536L24.1785 15.1984C24.8833 14.4226 24.8866 13.2394 24.1861 12.4597L22.6983 13.7962ZM12.2859 2.33455L10.807 3.68099C11.7193 4.68301 13.2956 4.68368 14.2087 3.68243L12.731 2.33474L11.2533 0.987039C11.9274 0.247814 13.0912 0.248306 13.7648 0.988104L12.2859 2.33455Z"
          fill="#EE10B0" mask="url(#path-1-inside-1_7952_43)"/>
</svg>
