<svg width="20" height="20" viewBox="0 0 20 20" fill="none" xmlns="http://www.w3.org/2000/svg">
<path d="M17.5002 16.6665H11.6668C11.4458 16.6665 11.2339 16.5787 11.0776 16.4224C10.9213 16.2661 10.8335 16.0542 10.8335 15.8332C10.8335 15.6122 10.9213 15.4002 11.0776 15.2439C11.2339 15.0876 11.4458 14.9998 11.6668 14.9998H17.5002C17.7212 14.9998 17.9331 15.0876 18.0894 15.2439C18.2457 15.4002 18.3335 15.6122 18.3335 15.8332C18.3335 16.0542 18.2457 16.2661 18.0894 16.4224C17.9331 16.5787 17.7212 16.6665 17.5002 16.6665ZM17.5002 13.3332H11.6668C11.4458 13.3332 11.2339 13.2454 11.0776 13.0891C10.9213 12.9328 10.8335 12.7209 10.8335 12.4998C10.8335 12.2788 10.9213 12.0669 11.0776 11.9106C11.2339 11.7543 11.4458 11.6665 11.6668 11.6665H17.5002C17.7212 11.6665 17.9331 11.7543 18.0894 11.9106C18.2457 12.0669 18.3335 12.2788 18.3335 12.4998C18.3335 12.7209 18.2457 12.9328 18.0894 13.0891C17.9331 13.2454 17.7212 13.3332 17.5002 13.3332ZM15.8335 6.6665C15.6125 6.6665 15.4005 6.57871 15.2442 6.42243C15.088 6.26615 15.0002 6.05418 15.0002 5.83317V4.99984H14.1668C13.9458 4.99984 13.7339 4.91204 13.5776 4.75576C13.4213 4.59948 13.3335 4.38752 13.3335 4.1665C13.3335 3.94549 13.4213 3.73353 13.5776 3.57725C13.7339 3.42097 13.9458 3.33317 14.1668 3.33317H15.0002V2.49984C15.0002 2.27882 15.088 2.06686 15.2442 1.91058C15.4005 1.7543 15.6125 1.6665 15.8335 1.6665C16.0545 1.6665 16.2665 1.7543 16.4228 1.91058C16.579 2.06686 16.6668 2.27882 16.6668 2.49984V3.33317H17.5002C17.7212 3.33317 17.9331 3.42097 18.0894 3.57725C18.2457 3.73353 18.3335 3.94549 18.3335 4.1665C18.3335 4.38752 18.2457 4.59948 18.0894 4.75576C17.9331 4.91204 17.7212 4.99984 17.5002 4.99984H16.6668V5.83317C16.6668 6.05418 16.579 6.26615 16.4228 6.42243C16.2665 6.57871 16.0545 6.6665 15.8335 6.6665Z" fill="#EE10B0"/>
<path d="M11.3248 4.32494C10.4725 3.61072 9.68604 2.82145 8.97484 1.96661C8.86512 1.83483 8.71741 1.74011 8.55187 1.69537C8.38633 1.65063 8.21101 1.65804 8.04984 1.71661C7.88878 1.77484 7.74958 1.88128 7.65117 2.02144C7.55275 2.1616 7.49992 2.32868 7.49984 2.49994V11.4666C6.80467 11.0021 5.97421 10.7833 5.14041 10.8448C4.30661 10.9064 3.5173 11.2448 2.89787 11.8064C2.27844 12.3679 1.86444 13.1203 1.72162 13.9441C1.57881 14.7679 1.71538 15.6158 2.10965 16.353C2.50391 17.0903 3.13324 17.6747 3.89767 18.0133C4.66209 18.3519 5.51775 18.4254 6.32871 18.222C7.13966 18.0186 7.8594 17.5501 8.37356 16.8908C8.88772 16.2315 9.16682 15.4193 9.16651 14.5833V4.63328C9.53287 5.00291 9.92557 5.34548 10.3415 5.65828C10.5413 5.76071 10.7169 5.90467 10.8565 6.08051C10.9961 6.25634 11.0964 6.45999 11.1509 6.6778C11.2054 6.89561 11.2126 7.12254 11.1722 7.34339C11.1318 7.56423 11.0446 7.77388 10.9165 7.95828C10.8193 8.15719 10.805 8.38658 10.8769 8.596C10.9488 8.80542 11.1009 8.9777 11.2998 9.07494C11.4988 9.17219 11.7282 9.18643 11.9376 9.11454C12.147 9.04266 12.3193 8.89052 12.4165 8.69161C12.8418 7.96559 12.9657 7.10183 12.7616 6.28553C12.5576 5.46924 12.0418 4.7654 11.3248 4.32494Z" fill="#EE10B0"/>
</svg>
