<svg width="50" height="50" viewBox="0 0 50 50" fill="none" xmlns="http://www.w3.org/2000/svg">
    <path d="M18.9682 7.95382V34.9614C18.3979 34.7722 17.7745 34.637 17.1081 34.5596C15.6744 34.3911 14.0417 34.4911 12.3091 34.9016C7.88448 35.9503 4.1085 38.7187 2.63272 41.7038C2.20254 42.5711 1.96729 43.458 1.96729 44.3253C1.96729 48.1767 6.59776 50.2003 12.3091 48.847C15.4294 48.1081 18.2273 46.5126 20.1236 44.5909C21.6984 42.9935 22.6509 41.1708 22.6509 39.4234V20.0949L44.3509 14.8538V29.7988C43.7806 29.6096 43.1562 29.4744 42.4898 29.397C41.0561 29.2285 39.4234 29.3275 37.6908 29.738C33.2662 30.7867 29.4912 33.5551 28.0144 36.5391C27.5842 37.4074 27.349 38.2943 27.349 39.1616C27.349 43.013 31.9795 45.0376 37.6908 43.6833C40.8121 42.9434 43.6109 41.3479 45.5072 39.4253C45.6248 39.3057 45.7394 39.1842 45.8492 39.0627C47.2173 37.5564 48.0326 35.8748 48.0326 34.2597V0.933105L18.9682 7.95382ZM44.3509 10.7291L42.4898 11.1789L22.6509 15.9711V11.1878L44.3509 5.94679V10.7291Z"
          fill="#EE10B0"/>
    <path d="M45.7112 5.47641C45.3408 4.49057 44.2785 3.86625 43.1779 4.12504L18.9682 9.7982V34.9614C18.3979 34.7723 17.7745 34.637 17.1081 34.5597C15.6744 34.3911 14.0417 34.4911 12.3091 34.9017C7.88448 35.9503 4.1085 38.7188 2.63272 41.7038C2.20254 42.5711 1.96729 43.458 1.96729 44.3253C1.96729 48.1767 6.59776 50.2003 12.3091 48.847C15.4294 48.1081 18.2273 46.5126 20.1236 44.5909C20.2853 44.4273 20.4401 44.2616 20.5871 44.0931C21.8836 42.6211 22.651 40.9914 22.651 39.4235V20.0949L44.351 14.8539V29.7988C43.7806 29.6097 43.1563 29.4744 42.4899 29.3971C41.0562 29.2285 39.4235 29.3275 37.6909 29.7381C33.2663 30.7867 29.4913 33.5552 28.0145 36.5392C27.5843 37.4074 27.3491 38.2944 27.3491 39.1616C27.3491 43.013 31.9796 45.0376 37.6909 43.6833C40.8122 42.9435 43.611 41.348 45.5073 39.4253C45.6249 39.3058 45.7395 39.1842 45.8493 39.0627V6.24282C45.8494 5.97133 45.8004 5.71362 45.7112 5.47641ZM44.351 10.7292L42.4899 11.179L22.651 15.9712V11.1878L44.351 5.94682V10.7292Z"
          fill="#EE10B0"/>
    <path d="M22.651 11.188V39.4235C22.651 40.9915 21.8837 42.6212 20.5872 44.0931V13.7513C20.5872 13.1828 20.7697 12.6497 21.0844 12.2144C21.4525 11.7052 22.0015 11.3299 22.651 11.188Z"
          fill="#EE10B0"/>
    <path d="M18.2333 7.37521V34.0022C16.4284 33.6129 14.3047 33.6732 12.1393 34.1864C9.25768 34.8693 6.54498 36.2712 4.50113 38.1336C2.39312 40.0545 1.23218 42.2532 1.23218 44.3252C1.23218 45.9218 1.91255 47.3037 3.19986 48.3215C4.59634 49.4258 6.60221 50 8.88424 50C10.027 50 11.2391 49.856 12.4785 49.5622C15.3601 48.8793 18.0727 47.4774 20.1167 45.615C22.2247 43.6941 23.3856 41.4953 23.3856 39.4234V30.0484V20.6735L43.6158 15.7871V28.8388C41.8109 28.4494 39.687 28.5098 37.5218 29.023C34.6402 29.7059 31.9275 31.1078 29.8836 32.9702C27.7756 34.8912 26.6146 37.0899 26.6146 39.1619C26.6146 40.7585 27.295 42.1404 28.5823 43.1582C30.6779 44.8153 34.1466 45.2792 37.8608 44.3989C40.7424 43.716 43.455 42.3141 45.499 40.4517C47.607 38.5308 48.7679 36.332 48.7679 34.26V0L18.2333 7.37521ZM47.298 34.2601C47.298 35.9133 46.3076 37.7263 44.5089 39.3653C42.6462 41.0626 40.1649 42.3424 37.5218 42.9687C34.2413 43.7463 31.2402 43.386 29.4941 42.0052C28.5589 41.2657 28.0847 40.309 28.0847 39.1619C28.0847 37.5088 29.0751 35.6957 30.8737 34.0568C32.7364 32.3594 35.2179 31.0798 37.8609 30.4534C40.1646 29.9074 42.3875 29.9225 44.1198 30.4963L45.0858 30.8161V13.9198L21.9157 19.5162V39.4234C21.9157 41.0765 20.9253 42.8896 19.1266 44.5285C17.2639 46.2258 14.7825 47.5056 12.1395 48.1319C8.85895 48.9096 5.85797 48.5492 4.11177 47.1684C3.17662 46.4289 2.7024 45.4722 2.7024 44.3251C2.7024 42.672 3.69283 40.8589 5.49146 39.22C7.35416 37.5227 9.83561 36.2429 12.4786 35.6166C13.6007 35.3507 14.7034 35.2179 15.7397 35.2179C16.8311 35.2179 17.8489 35.3652 18.7375 35.6594L19.7035 35.9793V8.53234L47.2982 1.86719V34.26H47.298V34.2601Z"
          fill="#020202"/>
    <path d="M45.0856 5.01318L21.9155 10.6096V16.9046L45.0856 11.3082V5.01318ZM43.6156 10.151L23.3855 15.0373V11.7668L43.6156 6.88057V10.151Z"
          fill="#020202"/>
    <path d="M8.78018 39.7917L7.99512 38.5488C7.40537 38.9213 6.85586 39.3278 6.36182 39.7569L7.32578 40.8668C7.76377 40.4862 8.25313 40.1245 8.78018 39.7917Z"
          fill="#020202"/>
    <path d="M11.5743 45.7482C10.638 45.97 9.73092 46.0825 8.87828 46.0825C7.57076 46.0825 6.42593 45.8066 5.73716 45.3255C5.2229 44.9662 5.15191 44.6324 5.15191 44.3253C5.15191 43.8283 5.3897 43.1952 5.82144 42.5424L4.59536 41.7314C3.9978 42.635 3.68188 43.5318 3.68188 44.3253C3.68188 45.2261 4.09019 45.9681 4.89527 46.5306C5.83872 47.1897 7.25308 47.5526 8.87828 47.5526C9.84489 47.5526 10.8659 47.4267 11.9132 47.1786C12.2241 47.105 12.5392 47.0194 12.85 46.9245L12.4201 45.5188C12.1394 45.6044 11.8549 45.6816 11.5743 45.7482Z"
          fill="#020202"/>
    <path d="M36.9568 40.5849C36.1483 40.7766 35.3581 40.8869 34.6082 40.9132L34.6594 42.3823C35.5061 42.3527 36.393 42.2292 37.2958 42.0153C39.1712 41.5709 41.054 40.7278 42.5973 39.6416L41.7512 38.4395C40.3571 39.4205 38.6545 40.1826 36.9568 40.5849Z"
          fill="#020202"/>
    <path d="M30.7126 41.6328C31.2735 41.9331 31.9457 42.1476 32.7107 42.2707L32.9441 40.8193C32.3405 40.7224 31.8232 40.56 31.4066 40.3369L30.7126 41.6328Z"
          fill="#020202"/>
</svg>
