<svg width="40" height="40" viewBox="0 0 100 100" fill="none" xmlns="http://www.w3.org/2000/svg">
    <path
        d="M74.323 31.3561L52.023 69.9811C51.124 71.5381 48.876 71.5381 47.977 69.9811L25.677 31.3561C24.778 29.7991 25.902 27.8521 27.7 27.8521H72.3C74.098 27.8521 75.222 29.7981 74.323 31.3561Z"
        fill="black" />
    <path
        d="M52.023 69.9808L74.323 31.3558C74.457 31.1228 74.533 30.8818 74.582 30.6398L53.023 67.9808C52.124 69.5378 49.876 69.5378 48.977 67.9808L26.677 29.3558C26.476 29.0068 26.389 28.6398 26.376 28.2778C25.438 28.9338 25.033 30.2388 25.677 31.3558L47.977 69.9808C48.876 71.5378 51.124 71.5378 52.023 69.9808Z"
        fill="black" />
    <path
        d="M74.323 31.3561L52.023 69.9811C51.124 71.5381 48.876 71.5381 47.977 69.9811L25.677 31.3561C24.778 29.7991 25.902 27.8521 27.7 27.8521H72.3C74.098 27.8521 75.222 29.7981 74.323 31.3561Z"
        stroke="black" stroke-miterlimit="10" />
</svg>