<svg width="40" height="40" viewBox="0 0 100 100" fill="none" xmlns="http://www.w3.org/2000/svg">
    <path
        d="M25.677 68.6439L47.977 30.0189C48.876 28.4619 51.124 28.4619 52.023 30.0189L74.323 68.6439C75.222 70.2009 74.098 72.1479 72.3 72.1479H27.7C25.902 72.1479 24.778 70.2019 25.677 68.6439Z"
        fill="black" />
    <path
        d="M47.977 30.0192L25.677 68.6442C25.543 68.8772 25.467 69.1182 25.418 69.3602L46.977 32.0192C47.876 30.4622 50.124 30.4622 51.023 32.0192L73.323 70.6442C73.524 70.9932 73.611 71.3602 73.624 71.7222C74.562 71.0662 74.967 69.7612 74.323 68.6442L52.023 30.0192C51.124 28.4622 48.876 28.4622 47.977 30.0192Z"
        fill="black" />
    <path
        d="M25.677 68.6439L47.977 30.0189C48.876 28.4619 51.124 28.4619 52.023 30.0189L74.323 68.6439C75.222 70.2009 74.098 72.1479 72.3 72.1479H27.7C25.902 72.1479 24.778 70.2019 25.677 68.6439Z"
        stroke="black" stroke-miterlimit="10" />
</svg>