<svg width="18" height="20" viewBox="0 0 18 20" fill="none" xmlns="http://www.w3.org/2000/svg">
<path fill-rule="evenodd" clip-rule="evenodd" d="M0 3.625C0 2.66359 0.34241 1.74156 0.951903 1.06174C1.5614 0.381919 2.38805 0 3.25 0H4.33333C5.19529 0 6.02194 0.381919 6.63143 1.06174C7.24092 1.74156 7.58333 2.66359 7.58333 3.625V15.7083C7.58333 16.6697 7.24092 17.5918 6.63143 18.2716C6.02194 18.9514 5.19529 19.3333 4.33333 19.3333H3.25C2.38805 19.3333 1.5614 18.9514 0.951903 18.2716C0.34241 17.5918 0 16.6697 0 15.7083V3.625ZM13 0C12.138 0 11.3114 0.381919 10.7019 1.06174C10.0924 1.74156 9.75 2.66359 9.75 3.625V15.7083C9.75 16.6697 10.0924 17.5918 10.7019 18.2716C11.3114 18.9514 12.138 19.3333 13 19.3333H14.0833C14.9453 19.3333 15.7719 18.9514 16.3814 18.2716C16.9909 17.5918 17.3333 16.6697 17.3333 15.7083V3.625C17.3333 2.66359 16.9909 1.74156 16.3814 1.06174C15.7719 0.381919 14.9453 0 14.0833 0H13Z" fill="#EE10B0"/>
</svg>
