<?xml version="1.0" standalone="no"?>
<!DOCTYPE svg PUBLIC "-//W3C//DTD SVG 20010904//EN"
 "http://www.w3.org/TR/2001/REC-SVG-20010904/DTD/svg10.dtd">
<svg version="1.0" xmlns="http://www.w3.org/2000/svg"
 width="288.000000pt" height="288.000000pt" viewBox="0 0 288.000000 288.000000"
 preserveAspectRatio="xMidYMid meet">

<g transform="translate(0.000000,288.000000) scale(0.100000,-0.100000)"
fill="#000000" stroke="none">
<path d="M2334 2062 c4 -8 -3 -10 -24 -7 -16 2 -30 -1 -30 -6 0 -5 16 -9 35
-9 35 0 46 12 23 26 -7 4 -8 3 -4 -4z"/>
<path d="M1977 1914 c-3 -3 -35 -6 -71 -6 -36 -1 -66 -5 -66 -9 0 -5 -10 -9
-22 -9 -47 1 -99 -8 -112 -19 -7 -6 -16 -8 -19 -5 -3 3 -12 2 -19 -2 -7 -4
-19 -9 -28 -10 -18 -3 -46 -9 -93 -22 -20 -6 -38 -8 -41 -5 -3 3 -11 1 -19 -5
-7 -6 -32 -14 -55 -18 -34 -5 -42 -11 -42 -27 0 -21 0 -21 -16 -1 -13 16 -15
16 -10 2 3 -10 1 -19 -4 -19 -11 -2 -26 -5 -37 -9 -5 -1 -11 -2 -15 -1 -4 0
-4 -7 -1 -16 4 -11 8 -13 11 -5 2 7 8 12 13 12 6 0 7 -4 4 -10 -3 -5 2 -10 12
-10 15 0 16 -2 3 -10 -13 -8 -13 -10 2 -10 12 0 16 -5 12 -17 -5 -15 -4 -16 5
-3 8 11 13 12 19 3 4 -6 19 -13 32 -15 14 -2 31 -7 38 -11 7 -5 12 -3 12 4 0
8 5 7 13 -4 12 -16 122 -45 202 -53 101 -10 245 -12 245 -3 0 5 11 9 25 9 31
0 66 21 120 72 36 34 39 42 40 90 0 32 -5 53 -13 56 -6 2 -12 10 -12 18 0 12
-63 59 -80 59 -3 0 -10 3 -16 7 -6 4 -14 5 -17 2z"/>
<path d="M498 1628 c-2 -4 -28 -10 -58 -13 -30 -4 -64 -9 -75 -12 -20 -7 -23
-8 -62 -17 -47 -12 -59 -15 -92 -25 -19 -6 -38 -8 -42 -5 -5 3 -9 0 -9 -6 0
-6 -6 -8 -12 -4 -7 4 2 -9 21 -29 72 -76 212 -126 355 -127 l69 0 -6 28 c-3
15 -11 71 -18 124 l-12 97 -29 -2 c-15 -1 -29 -5 -30 -9z"/>
</g>
</svg>
