<svg width="24" height="24" viewBox="0 0 24 24" fill="none" xmlns="http://www.w3.org/2000/svg">
    <path
        d="M16.06 21.91C15.75 21.87 15.39 21.74 14.99 21.5L12.75 20.17C12.34 19.93 11.68 19.93 11.27 20.17L9.02998 21.5C7.41998 22.45 6.44998 21.74 6.86998 19.92L7.39998 17.61C7.49998 17.18 7.32 16.57 7.01 16.25L5.14998 14.39C4.04998 13.29 4.40999 12.18 5.93999 11.93L8.32997 11.53C8.72997 11.46 9.21 11.11 9.39 10.75L10.71 8.10998C11.43 6.67998 12.6 6.67998 13.31 8.10998L14.63 10.75C14.81 11.11 15.29 11.47 15.69 11.53L18.08 11.93C19.61 12.19 19.97 13.29 18.87 14.39L17.01 16.25C16.7 16.56 16.52 17.17 16.62 17.61"
        stroke="#79C142" stroke-width="1.5" stroke-linecap="round" stroke-linejoin="round" />
    <path d="M6 9V2" stroke="#79C142" stroke-width="1.5" stroke-linecap="round"
        stroke-linejoin="round" />
    <path d="M18 9V2" stroke="#79C142" stroke-width="1.5" stroke-linecap="round"
        stroke-linejoin="round" />
    <path d="M12 4V2" stroke="#79C142" stroke-width="1.5" stroke-linecap="round"
        stroke-linejoin="round" />
</svg>