<svg id="Layer_1" viewBox="0 0 64 64" xmlns="http://www.w3.org/2000/svg" data-name="Layer 1">
    <g fill="rgb(0,0,0)">
        <path d="m44.2736 40.732a52.11 52.11 0 0 0 -12.2666-1.296 52.1113 52.1113 0 0 0 -12.267 1.296c-3.8.9657-5.7271 2.3168-5.7271 4.016s1.9269 3.05 5.7271 4.0159a52.1109 52.1109 0 0 0 12.267 1.2961 52.1091 52.1091 0 0 0 12.2666-1.2961c3.8-.9657 5.7272-2.3168 5.7272-4.0159s-1.9269-3.0503-5.7272-4.016z"></path>
        <path d="m14.5978 41.2473a14.6325 14.6325 0 0 1 4.7762-1.9566 53.6137 53.6137 0 0 1 12.633-1.3418 53.6134 53.6134 0 0 1 12.633 1.3418 14.6325 14.6325 0 0 1 4.7762 1.9566 6.5007 6.5007 0 0 1 .5461.4271v-11.1655c0-1.6994-1.92-3.05-5.7072-4.0159a51.8946 51.8946 0 0 0 -12.248-1.2962 51.8964 51.8964 0 0 0 -12.2483 1.2962c-3.7869.9654-5.707 2.3165-5.707 4.0159v11.1655a6.54 6.54 0 0 1 .546-.4271z"></path>
        <path d="m59.511 26.9239-25.9626-12.6611a3.8751 3.8751 0 0 0 -3.0968 0l-25.9626 12.6611a1.52 1.52 0 0 0 0 2.8685l8.0757 3.9382v-3.2217a4.2261 4.2261 0 0 1 2.0647-3.4989 14.556 14.556 0 0 1 4.7621-1.9575 53.3931 53.3931 0 0 1 12.6155-1.3425 53.3928 53.3928 0 0 1 12.6154 1.342 14.5576 14.5576 0 0 1 4.7622 1.958 4.2262 4.2262 0 0 1 2.0646 3.4994v3.2149l4.0063-1.9543v3.33l-1.5173 8.011a1.7022 1.7022 0 0 0 0 .4933 2.47 2.47 0 0 0 2.815 1.77 2.176 2.176 0 0 0 2.2013-2.2628l-1.5162-8.0065v-4.3018l2.0728-1.0108a1.52 1.52 0 0 0 0-2.8685z"></path>
    </g>
</svg>