<svg width="114" height="25" viewBox="0 0 114 25" fill="none" xmlns="http://www.w3.org/2000/svg">
    <path d="M12.8013 0C9.76163 0.000126048 6.82116 1.08185 4.50605 3.05163C2.19093 5.02141 0.652262 7.7507 0.165342 10.7511C-0.321578 13.7516 0.275029 16.8274 1.84841 19.4282C3.4218 22.029 5.86928 23.9851 8.75294 24.9465C9.39301 25.0585 9.63303 24.6745 9.63303 24.3384C9.63303 24.0344 9.61702 23.0263 9.61702 21.9542C6.40068 22.5463 5.5686 21.1702 5.31257 20.4501C5.02848 19.7498 4.57813 19.1292 4.00044 18.6419C3.55239 18.4019 2.91233 17.8098 3.98443 17.7938C4.39379 17.8382 4.78642 17.9807 5.12904 18.2091C5.47166 18.4375 5.75417 18.7451 5.95264 19.1059C6.12772 19.4204 6.36315 19.6973 6.64543 19.9207C6.92771 20.1441 7.2513 20.3096 7.59764 20.4077C7.94399 20.5058 8.3063 20.5346 8.6638 20.4924C9.02129 20.4503 9.36696 20.338 9.68099 20.162C9.73641 19.5112 10.0264 18.9028 10.4971 18.4499C7.64881 18.1299 4.67251 17.0257 4.67251 12.1293C4.65452 10.857 5.12399 9.62607 5.98464 8.68892C5.59328 7.58317 5.63907 6.36969 6.11265 5.29657C6.11265 5.29657 7.18472 4.96053 9.63301 6.60871C11.7277 6.03261 13.939 6.03261 16.0337 6.60871C18.4819 4.94454 19.554 5.29657 19.554 5.29657C20.0277 6.36967 20.0735 7.58318 19.682 8.68892C20.5453 9.62447 21.0151 10.8565 20.9942 12.1293C20.9942 17.0417 18.0018 18.1299 15.1536 18.4499C15.4591 18.7595 15.6944 19.1313 15.8435 19.5399C15.9926 19.9486 16.052 20.3845 16.0177 20.8181C16.0177 22.5303 16.0016 23.9064 16.0016 24.3385C16.0016 24.6745 16.2417 25.0746 16.8817 24.9466C19.7603 23.9773 22.2008 22.0166 23.7674 19.4145C25.3341 16.8124 25.9251 13.7381 25.4348 10.7406C24.9445 7.74305 23.4049 5.0173 21.0908 3.04992C18.7767 1.08254 15.8387 0.00158084 12.8013 0Z"
          fill="#161B22"/>
    <path d="M42.6211 20.7605C41.1084 20.7605 39.7867 20.4167 38.6559 19.7291C37.5252 19.0415 36.6466 18.0865 36.0201 16.8641C35.3936 15.6264 35.0804 14.19 35.0804 12.5551C35.0804 10.9048 35.4012 9.45319 36.043 8.20022C36.7001 6.93197 37.6245 5.94639 38.8164 5.24351C40.0235 4.52534 41.4522 4.16626 43.1024 4.16626C44.9819 4.16626 46.5405 4.61702 47.7782 5.51855C49.0159 6.42008 49.8181 7.66541 50.1848 9.25455H46.9072C46.6627 8.50582 46.2196 7.92518 45.5778 7.51261C44.9361 7.08477 44.1109 6.87084 43.1024 6.87084C41.498 6.87084 40.2603 7.38273 39.3894 8.4065C38.5184 9.41499 38.0829 10.8055 38.0829 12.578C38.0829 14.3505 38.5108 15.7257 39.3664 16.7036C40.2374 17.6663 41.414 18.1476 42.8962 18.1476C44.3478 18.1476 45.4403 17.758 46.1738 16.9787C46.9225 16.1841 47.3733 15.1451 47.5261 13.8615H43.4692V11.6612H50.4828V20.4855H47.7782L47.549 18.3768C47.0295 19.1408 46.38 19.7291 45.6008 20.1417C44.8215 20.5542 43.8283 20.7605 42.6211 20.7605ZM54.8476 7.35217C54.3128 7.35217 53.8697 7.19173 53.5183 6.87084C53.1821 6.54996 53.014 6.14504 53.014 5.65607C53.014 5.16711 53.1821 4.76982 53.5183 4.46422C53.8697 4.14333 54.3128 3.98289 54.8476 3.98289C55.3825 3.98289 55.8179 4.14333 56.1541 4.46422C56.5055 4.76982 56.6813 5.16711 56.6813 5.65607C56.6813 6.14504 56.5055 6.54996 56.1541 6.87084C55.8179 7.19173 55.3825 7.35217 54.8476 7.35217ZM53.3807 20.4855V9.11703H56.3145V20.4855H53.3807ZM64.4421 20.4855C63.2502 20.4855 62.2952 20.1952 61.5771 19.6145C60.8589 19.0339 60.4998 18.0024 60.4998 16.5203V11.5695H58.5516V9.11703H60.4998L60.8436 6.06864H63.4336V9.11703H66.5049V11.5695H63.4336V16.5432C63.4336 17.0933 63.5482 17.4753 63.7774 17.6892C64.0219 17.8878 64.4345 17.9872 65.0151 17.9872H66.4362V20.4855H64.4421ZM69.0926 20.4855V4.4413H72.0264V11.1111H79.2233V4.4413H82.1571V20.4855H79.2233V13.4948H72.0264V20.4855H69.0926ZM89.4699 20.7605C88.0489 20.7605 86.9487 20.3174 86.1694 19.4311C85.4054 18.5449 85.0234 17.2461 85.0234 15.5347V9.11703H87.9343V15.2597C87.9343 16.2376 88.1329 16.9863 88.5302 17.5058C88.9275 18.0254 89.554 18.2851 90.4097 18.2851C91.2195 18.2851 91.8842 17.9948 92.4037 17.4142C92.9385 16.8335 93.2059 16.0237 93.2059 14.9846V9.11703H96.1397V20.4855H93.5497L93.3205 18.5602C92.9691 19.2325 92.4572 19.7673 91.7849 20.1646C91.1278 20.5619 90.3562 20.7605 89.4699 20.7605ZM105.89 20.7605C105.034 20.7605 104.286 20.6001 103.644 20.2792C103.002 19.9583 102.482 19.5075 102.085 18.9269L101.764 20.4855H99.1514V3.98289H102.085V10.7444C102.452 10.2401 102.933 9.797 103.529 9.41499C104.14 9.03299 104.927 8.84199 105.89 8.84199C106.96 8.84199 107.915 9.10175 108.755 9.62127C109.595 10.1408 110.26 10.8513 110.749 11.7529C111.238 12.6544 111.483 13.6782 111.483 14.8242C111.483 15.9702 111.238 16.994 110.749 17.8955C110.26 18.7817 109.595 19.4846 108.755 20.0041C107.915 20.5084 106.96 20.7605 105.89 20.7605ZM105.271 18.1934C106.203 18.1934 106.975 17.8802 107.586 17.2537C108.197 16.6272 108.503 15.8174 108.503 14.8242C108.503 13.831 108.197 13.0135 107.586 12.3717C106.975 11.7299 106.203 11.4091 105.271 11.4091C104.324 11.4091 103.544 11.7299 102.933 12.3717C102.337 12.9982 102.039 13.808 102.039 14.8013C102.039 15.7945 102.337 16.612 102.933 17.2537C103.544 17.8802 104.324 18.1934 105.271 18.1934Z"
          fill="#161B22"/>
</svg>
