<svg width="16" height="16" viewBox="0 0 16 16" fill="none" xmlns="http://www.w3.org/2000/svg">
<path fill-rule="evenodd" clip-rule="evenodd" d="M7.99998 8.99996C8.70722 8.99996 9.3855 8.71901 9.8856 8.21891C10.3857 7.71881 10.6666 7.04054 10.6666 6.33329C10.6666 5.62605 10.3857 4.94777 9.8856 4.44767C9.3855 3.94758 8.70722 3.66663 7.99998 3.66663C7.29274 3.66663 6.61446 3.94758 6.11436 4.44767C5.61426 4.94777 5.33331 5.62605 5.33331 6.33329C5.33331 7.04054 5.61426 7.71881 6.11436 8.21891C6.61446 8.71901 7.29274 8.99996 7.99998 8.99996ZM7.99998 8.33329C8.26262 8.33329 8.5227 8.28156 8.76535 8.18105C9.008 8.08054 9.22848 7.93322 9.41419 7.74751C9.59991 7.56179 9.74723 7.34131 9.84774 7.09866C9.94825 6.85601 9.99998 6.59594 9.99998 6.33329C9.99998 6.07065 9.94825 5.81058 9.84774 5.56793C9.74723 5.32527 9.59991 5.1048 9.41419 4.91908C9.22848 4.73336 9.008 4.58604 8.76535 4.48553C8.5227 4.38502 8.26262 4.33329 7.99998 4.33329C7.46955 4.33329 6.96084 4.54401 6.58577 4.91908C6.21069 5.29415 5.99998 5.80286 5.99998 6.33329C5.99998 6.86373 6.21069 7.37243 6.58577 7.74751C6.96084 8.12258 7.46955 8.33329 7.99998 8.33329Z" fill="white"/>
<path fill-rule="evenodd" clip-rule="evenodd" d="M14.6666 7.99998C14.6666 11.682 11.682 14.6666 7.99998 14.6666C4.31798 14.6666 1.33331 11.682 1.33331 7.99998C1.33331 4.31798 4.31798 1.33331 7.99998 1.33331C11.682 1.33331 14.6666 4.31798 14.6666 7.99998ZM11.21 13.07C10.2503 13.6792 9.13668 14.0018 7.99998 14C6.83614 14.0018 5.69713 13.6635 4.72298 13.0266C4.64298 12.9266 4.56165 12.8233 4.47965 12.7166C4.38437 12.5917 4.33294 12.4388 4.33331 12.2816C4.33331 11.9226 4.59131 11.6216 4.93631 11.5713C7.21798 11.238 8.78898 11.2666 11.0736 11.583C11.2391 11.607 11.3903 11.69 11.4993 11.8168C11.6083 11.9435 11.6677 12.1055 11.6666 12.2726C11.6666 12.4326 11.6116 12.588 11.5123 12.7093C11.41 12.834 11.309 12.9543 11.21 13.07ZM12.3283 12.1553C12.275 11.5313 11.8013 11.0106 11.165 10.9226C8.82631 10.599 7.19165 10.568 4.83998 10.9116C4.19998 11.005 3.72831 11.5303 3.67231 12.156C2.59742 11.0397 1.99786 9.54967 1.99998 7.99998C1.99998 4.68631 4.68631 1.99998 7.99998 1.99998C11.3136 1.99998 14 4.68631 14 7.99998C14.0021 9.54935 13.4028 11.0391 12.3283 12.1553Z" fill="white"/>
</svg>
