<svg width="18" height="18" viewBox="0 0 18 18" fill="none" xmlns="http://www.w3.org/2000/svg">
<path d="M0.75 8.9132C0.75 7.082 0.75 6.1668 1.166 5.4084C1.5804 4.6492 2.3396 4.1788 3.8572 3.2364L5.4572 2.2436C7.0612 1.2476 7.8636 0.75 8.75 0.75C9.6364 0.75 10.438 1.2476 12.0428 2.2436L13.6428 3.2364C15.1604 4.1788 15.9196 4.6492 16.3348 5.4084C16.75 6.1668 16.75 7.082 16.75 8.9124V10.13C16.75 13.25 16.75 14.8108 15.8124 15.7804C14.8756 16.75 13.3668 16.75 10.35 16.75H7.15C4.1332 16.75 2.6244 16.75 1.6876 15.7804C0.75 14.8108 0.75 13.2508 0.75 10.13V8.9132Z" stroke="white" stroke-width="1.5"/>
</svg>
