<svg width="16" height="16" viewBox="0 0 16 16" fill="none" xmlns="http://www.w3.org/2000/svg">
<g clip-path="url(#clip0_4228_134)">
<path d="M8 16C7.26042 16 6.55208 15.9062 5.875 15.7188C5.19792 15.5312 4.5599 15.263 3.96094 14.9141C3.36198 14.5651 2.82292 14.1484 2.34375 13.6641C1.86458 13.1797 1.44792 12.638 1.09375 12.0391C0.739583 11.4401 0.471354 10.8021 0.289062 10.125C0.106771 9.44792 0.0104167 8.73958 0 8C0 7.26562 0.09375 6.55729 0.28125 5.875C0.46875 5.19271 0.736979 4.55469 1.08594 3.96094C1.4349 3.36719 1.85156 2.82812 2.33594 2.34375C2.82031 1.85938 3.36198 1.44271 3.96094 1.09375C4.5599 0.744792 5.19792 0.476562 5.875 0.289062C6.55208 0.101562 7.26042 0.00520833 8 0C8.73438 0 9.44271 0.09375 10.125 0.28125C10.8073 0.46875 11.4453 0.736979 12.0391 1.08594C12.6328 1.4349 13.1719 1.85156 13.6562 2.33594C14.1406 2.82031 14.5573 3.36198 14.9062 3.96094C15.2552 4.5599 15.5234 5.19792 15.7109 5.875C15.8984 6.55208 15.9948 7.26042 16 8C16 8.73958 15.9062 9.44792 15.7188 10.125C15.5312 10.8021 15.263 11.4401 14.9141 12.0391C14.5651 12.638 14.1484 13.1771 13.6641 13.6562C13.1797 14.1354 12.638 14.5521 12.0391 14.9062C11.4401 15.2604 10.8021 15.5286 10.125 15.7109C9.44792 15.8932 8.73958 15.9896 8 16ZM8 1C7.35938 1 6.74219 1.08333 6.14844 1.25C5.55469 1.41667 4.9974 1.65104 4.47656 1.95312C3.95573 2.25521 3.48177 2.6224 3.05469 3.05469C2.6276 3.48698 2.26302 3.95833 1.96094 4.46875C1.65885 4.97917 1.42188 5.53646 1.25 6.14062C1.07812 6.74479 0.994792 7.36458 1 8C1 8.64062 1.08333 9.25781 1.25 9.85156C1.41667 10.4453 1.65104 11.0026 1.95312 11.5234C2.25521 12.0443 2.6224 12.5182 3.05469 12.9453C3.48698 13.3724 3.95833 13.737 4.46875 14.0391C4.97917 14.3411 5.53646 14.5781 6.14062 14.75C6.74479 14.9219 7.36458 15.0052 8 15C8.64062 15 9.25781 14.9167 9.85156 14.75C10.4453 14.5833 11.0026 14.349 11.5234 14.0469C12.0443 13.7448 12.5182 13.3776 12.9453 12.9453C13.3724 12.513 13.737 12.0417 14.0391 11.5312C14.3411 11.0208 14.5781 10.4635 14.75 9.85938C14.9219 9.25521 15.0052 8.63542 15 8C15 7.35938 14.9167 6.74219 14.75 6.14844C14.5833 5.55469 14.349 4.9974 14.0469 4.47656C13.7448 3.95573 13.3776 3.48177 12.9453 3.05469C12.513 2.6276 12.0417 2.26302 11.5312 1.96094C11.0208 1.65885 10.4635 1.42188 9.85938 1.25C9.25521 1.07812 8.63542 0.994792 8 1ZM8 8V3H7V9H11V8H8Z" fill="white"/>
</g>
<defs>
<clipPath id="clip0_4228_134">
<rect width="16" height="16" fill="white"/>
</clipPath>
</defs>
</svg>
