<svg width="16" height="16" viewBox="0 0 16 16" fill="none" xmlns="http://www.w3.org/2000/svg">
<path d="M2 4C2 3.86739 2.05268 3.74021 2.14645 3.64645C2.24021 3.55268 2.36739 3.5 2.5 3.5H13.5C13.6326 3.5 13.7598 3.55268 13.8536 3.64645C13.9473 3.74021 14 3.86739 14 4C14 4.13261 13.9473 4.25979 13.8536 4.35355C13.7598 4.44732 13.6326 4.5 13.5 4.5H2.5C2.36739 4.5 2.24021 4.44732 2.14645 4.35355C2.05268 4.25979 2 4.13261 2 4ZM2.5 8.5H10C10.1326 8.5 10.2598 8.44732 10.3536 8.35355C10.4473 8.25979 10.5 8.13261 10.5 8C10.5 7.86739 10.4473 7.74021 10.3536 7.64645C10.2598 7.55268 10.1326 7.5 10 7.5H2.5C2.36739 7.5 2.24021 7.55268 2.14645 7.64645C2.05268 7.74021 2 7.86739 2 8C2 8.13261 2.05268 8.25979 2.14645 8.35355C2.24021 8.44732 2.36739 8.5 2.5 8.5ZM7 11.5H2.5C2.36739 11.5 2.24021 11.5527 2.14645 11.6464C2.05268 11.7402 2 11.8674 2 12C2 12.1326 2.05268 12.2598 2.14645 12.3536C2.24021 12.4473 2.36739 12.5 2.5 12.5H7C7.13261 12.5 7.25979 12.4473 7.35355 12.3536C7.44732 12.2598 7.5 12.1326 7.5 12C7.5 11.8674 7.44732 11.7402 7.35355 11.6464C7.25979 11.5527 7.13261 11.5 7 11.5ZM15.4788 7.89375C15.4599 7.95689 15.4287 8.01567 15.387 8.06672C15.3453 8.11777 15.294 8.16008 15.2359 8.19121C15.1778 8.22235 15.1142 8.24169 15.0486 8.24813C14.983 8.25457 14.9168 8.24799 14.8538 8.22875L13 7.67188V12C13.0007 12.4412 12.8558 12.8702 12.5876 13.2206C12.3195 13.5709 11.9433 13.823 11.5172 13.9376C11.0912 14.0522 10.6393 14.0229 10.2316 13.8544C9.82385 13.6858 9.4832 13.3874 9.26248 13.0054C9.04176 12.6234 8.95331 12.1793 9.01088 11.7419C9.06844 11.3045 9.2688 10.8983 9.58084 10.5864C9.89288 10.2746 10.2991 10.0744 10.7366 10.0171C11.174 9.95976 11.6181 10.0484 12 10.2694V7C12 6.92206 12.0183 6.8452 12.0533 6.77557C12.0883 6.70593 12.1391 6.64544 12.2016 6.59893C12.2642 6.55242 12.3367 6.52117 12.4135 6.50768C12.4902 6.4942 12.5691 6.49884 12.6438 6.52125L15.1438 7.27125C15.2707 7.30941 15.3773 7.39641 15.4401 7.51315C15.5029 7.62988 15.5168 7.76678 15.4788 7.89375ZM12 12C12 11.8022 11.9414 11.6089 11.8315 11.4444C11.7216 11.28 11.5654 11.1518 11.3827 11.0761C11.2 11.0004 10.9989 10.9806 10.8049 11.0192C10.6109 11.0578 10.4327 11.153 10.2929 11.2929C10.153 11.4327 10.0578 11.6109 10.0192 11.8049C9.98063 11.9989 10.0004 12.2 10.0761 12.3827C10.1518 12.5654 10.28 12.7216 10.4444 12.8315C10.6089 12.9414 10.8022 13 11 13C11.2652 13 11.5196 12.8946 11.7071 12.7071C11.8946 12.5196 12 12.2652 12 12Z" fill="white"/>
</svg>
