<svg width="129" height="25" viewBox="0 0 129 25" fill="none" xmlns="http://www.w3.org/2000/svg">
<path d="M2.14063 1.25H6.10937L11.9531 17.9531L17.7969 1.25H21.7656L13.5469 24H10.3594L2.14063 1.25ZM0 1.25H3.95313L4.67187 17.5312V24H0V1.25ZM19.9531 1.25H23.9219V24H19.2344V17.5312L19.9531 1.25ZM35.5312 24.3125C33.7812 24.3125 32.2761 23.9479 31.0157 23.2188C29.7553 22.4792 28.7865 21.4896 28.1094 20.25C27.4428 19.0104 27.1094 17.6354 27.1094 16.125V15.5C27.1094 13.7917 27.427 12.2865 28.0625 10.9844C28.6979 9.6719 29.6093 8.6458 30.7968 7.9062C31.9843 7.1562 33.3958 6.7812 35.0312 6.7812C36.6355 6.7812 37.9895 7.1302 39.0938 7.8281C40.198 8.5156 41.0364 9.4792 41.6093 10.7188C42.1822 11.9583 42.4688 13.4062 42.4688 15.0625V16.9375H29.0312V13.9375H38.0468V13.5938C38.0468 12.9688 37.9323 12.4115 37.7032 11.9219C37.4844 11.4219 37.1511 11.026 36.7032 10.7344C36.2553 10.4427 35.6822 10.2969 34.9843 10.2969C34.1927 10.2969 33.5468 10.5208 33.0468 10.9688C32.5468 11.4167 32.1823 12.0365 31.9532 12.8281C31.7344 13.6094 31.625 14.5 31.625 15.5V16.125C31.625 17.0312 31.7917 17.8385 32.125 18.5469C32.4584 19.2448 32.9375 19.7969 33.5625 20.2031C34.1875 20.599 34.9375 20.7969 35.8125 20.7969C36.6249 20.7969 37.3803 20.6406 38.0782 20.3281C38.7865 20.0052 39.3959 19.5208 39.9062 18.875L42.0938 21.25C41.5626 22.0208 40.7448 22.724 39.6407 23.3594C38.5365 23.9948 37.1667 24.3125 35.5312 24.3125ZM49.7812 0V24H45.2657V0H49.7812ZM52.7812 15.7188V15.3906C52.7812 13.7448 53.0938 12.276 53.7188 10.9844C54.3438 9.6823 55.2499 8.6562 56.4375 7.9062C57.6249 7.1562 59.0678 6.7812 60.7657 6.7812C62.474 6.7812 63.927 7.1562 65.1249 7.9062C66.3229 8.6562 67.2344 9.6823 67.8594 10.9844C68.4844 12.276 68.7969 13.7448 68.7969 15.3906V15.7188C68.7969 17.3646 68.4844 18.8385 67.8594 20.1406C67.2344 21.4323 66.3229 22.4531 65.1249 23.2031C63.9375 23.9427 62.4947 24.3125 60.7968 24.3125C59.0885 24.3125 57.6354 23.9427 56.4375 23.2031C55.2499 22.4531 54.3438 21.4323 53.7188 20.1406C53.0938 18.8385 52.7812 17.3646 52.7812 15.7188ZM57.2812 15.3906V15.7188C57.2812 16.6562 57.3959 17.5104 57.625 18.2812C57.8542 19.0521 58.2239 19.6667 58.7343 20.125C59.2447 20.5729 59.9322 20.7969 60.7968 20.7969C61.6406 20.7969 62.3177 20.5729 62.8281 20.125C63.3385 19.6667 63.7084 19.0521 63.9376 18.2812C64.1667 17.5104 64.2812 16.6562 64.2812 15.7188V15.3906C64.2812 14.474 64.1667 13.6302 63.9376 12.8594C63.7084 12.0885 63.3385 11.4688 62.8281 11C62.3177 10.5312 61.6303 10.2969 60.7657 10.2969C59.9219 10.2969 59.2447 10.5312 58.7343 11C58.2239 11.4688 57.8542 12.0885 57.625 12.8594C57.3959 13.6302 57.2812 14.474 57.2812 15.3906ZM81.5469 20.3125V0H86.0781V24H81.9999L81.5469 20.3125ZM70.8594 15.75V15.4219C70.8594 13.7031 71.1145 12.1979 71.6249 10.9062C72.1354 9.6042 72.8854 8.5938 73.8749 7.875C74.8645 7.1458 76.0625 6.7812 77.4688 6.7812C78.7917 6.7812 79.8959 7.151 80.7812 7.8906C81.6666 8.6198 82.3645 9.625 82.8749 10.9062C83.3958 12.1771 83.7552 13.6354 83.9531 15.2812V16C83.7552 17.5625 83.3958 18.974 82.8749 20.2344C82.3645 21.4844 81.6614 22.4792 80.7656 23.2188C79.8802 23.9479 78.7709 24.3125 77.4376 24.3125C76.0417 24.3125 74.849 23.9427 73.8594 23.2031C72.8803 22.4531 72.1354 21.4323 71.6249 20.1406C71.1145 18.849 70.8594 17.3854 70.8594 15.75ZM75.3594 15.4219V15.75C75.3594 16.6771 75.4636 17.526 75.6719 18.2969C75.8803 19.0573 76.2188 19.6615 76.6876 20.1094C77.1563 20.5469 77.7864 20.7656 78.5781 20.7656C79.3489 20.7656 79.9844 20.5938 80.4844 20.25C80.9844 19.8958 81.3645 19.4115 81.6249 18.7969C81.8958 18.1823 82.052 17.474 82.0938 16.6719V14.625C82.0626 13.9688 81.9688 13.3802 81.8126 12.8594C81.6667 12.3281 81.448 11.875 81.1562 11.5C80.8749 11.125 80.5209 10.8333 80.0938 10.625C79.677 10.4167 79.1823 10.3125 78.6094 10.3125C77.8282 10.3125 77.198 10.5417 76.7188 11C76.2499 11.4479 75.9063 12.0573 75.6876 12.8281C75.4688 13.599 75.3594 14.4635 75.3594 15.4219ZM94.3438 7.0938V24H89.8281V7.0938H94.3438ZM89.5469 2.6875C89.5469 2.0312 89.7761 1.4896 90.2344 1.0625C90.6928 0.63542 91.3072 0.42188 92.0781 0.42188C92.8385 0.42188 93.448 0.63542 93.9062 1.0625C94.3749 1.4896 94.6094 2.0312 94.6094 2.6875C94.6094 3.3438 94.3749 3.8854 93.9062 4.3125C93.448 4.7396 92.8385 4.9531 92.0781 4.9531C91.3072 4.9531 90.6928 4.7396 90.2344 4.3125C89.7761 3.8854 89.5469 3.3438 89.5469 2.6875ZM105.844 24.3125C104.094 24.3125 102.589 23.9479 101.328 23.2188C100.068 22.4792 99.0988 21.4896 98.4218 20.25C97.7553 19.0104 97.4219 17.6354 97.4219 16.125V15.5C97.4219 13.7917 97.7395 12.2865 98.3747 10.9844C99.0107 9.6719 99.9217 8.6458 101.11 7.9062C102.297 7.1562 103.709 6.7812 105.344 6.7812C106.948 6.7812 108.302 7.1302 109.407 7.8281C110.511 8.5156 111.349 9.4792 111.922 10.7188C112.495 11.9583 112.781 13.4062 112.781 15.0625V16.9375H99.3438V13.9375H108.36V13.5938C108.36 12.9688 108.245 12.4115 108.016 11.9219C107.797 11.4219 107.464 11.026 107.016 10.7344C106.568 10.4427 105.995 10.2969 105.297 10.2969C104.505 10.2969 103.86 10.5208 103.36 10.9688C102.86 11.4167 102.495 12.0365 102.266 12.8281C102.047 13.6094 101.938 14.5 101.938 15.5V16.125C101.938 17.0312 102.104 17.8385 102.438 18.5469C102.771 19.2448 103.25 19.7969 103.875 20.2031C104.5 20.599 105.25 20.7969 106.125 20.7969C106.938 20.7969 107.693 20.6406 108.391 20.3281C109.099 20.0052 109.709 19.5208 110.219 18.875L112.407 21.25C111.875 22.0208 111.058 22.724 109.953 23.3594C108.849 23.9948 107.479 24.3125 105.844 24.3125ZM124.485 19.3281C124.485 19.0052 124.391 18.7135 124.203 18.4531C124.016 18.1927 123.667 17.9531 123.157 17.7344C122.657 17.5052 121.933 17.2969 120.985 17.1094C119.839 16.8594 118.813 16.5208 117.907 16.0938C117 15.6667 116.287 15.1198 115.766 14.4531C115.245 13.7865 114.985 12.9688 114.985 12C114.985 11.0625 115.25 10.1979 115.781 9.4062C116.323 8.6146 117.099 7.9792 118.11 7.5C119.12 7.0208 120.328 6.7812 121.735 6.7812C123.203 6.7812 124.464 7.0156 125.516 7.4844C126.578 7.9531 127.391 8.599 127.953 9.4219C128.526 10.2344 128.813 11.1615 128.813 12.2031H124.313C124.313 11.5469 124.104 11 123.688 10.5625C123.271 10.1146 122.615 9.8906 121.719 9.8906C121.219 9.8906 120.787 9.9792 120.422 10.1562C120.058 10.3229 119.776 10.5521 119.578 10.8438C119.391 11.125 119.297 11.4375 119.297 11.7812C119.297 12.125 119.396 12.4271 119.594 12.6875C119.802 12.9375 120.136 13.1615 120.594 13.3594C121.052 13.5469 121.677 13.7188 122.469 13.875C123.688 14.125 124.776 14.4531 125.735 14.8594C126.693 15.2552 127.453 15.7969 128.016 16.4844C128.578 17.1615 128.86 18.0521 128.86 19.1562C128.86 20.1458 128.568 21.0312 127.985 21.8125C127.401 22.5938 126.578 23.2083 125.516 23.6562C124.453 24.0938 123.198 24.3125 121.75 24.3125C120.177 24.3125 118.844 24.0312 117.75 23.4688C116.667 22.9062 115.844 22.1927 115.281 21.3281C114.729 20.4531 114.453 19.5573 114.453 18.6406H118.719C118.74 19.2552 118.896 19.75 119.188 20.125C119.49 20.5 119.87 20.7708 120.328 20.9375C120.797 21.1042 121.302 21.1875 121.844 21.1875C122.427 21.1875 122.912 21.1094 123.297 20.9531C123.683 20.7865 123.974 20.5677 124.172 20.2969C124.38 20.0156 124.485 19.6927 124.485 19.3281Z" fill="url(#paint0_linear_7931_89)"/>
<defs>
<linearGradient id="paint0_linear_7931_89" x1="-10.535" y1="15" x2="219.136" y2="16.0109" gradientUnits="userSpaceOnUse">
<stop stop-color="#EE10B0"/>
<stop offset="1" stop-color="#0E9EEF" stop-opacity="0.92"/>
</linearGradient>
</defs>
</svg>
