<svg width="100" height="100" viewBox="0 0 100 100" fill="none" xmlns="http://www.w3.org/2000/svg">
<path d="M31.356 25.6772L69.981 47.9772C71.538 48.8762 71.538 51.1242 69.981 52.0232L31.356 74.3232C29.799 75.2222 27.852 74.0982 27.852 72.3002V27.7002C27.852 25.9022 29.798 24.7782 31.356 25.6772Z" fill="#4B3E63"/>
<path d="M69.981 47.977L31.356 25.677C31.123 25.543 30.882 25.467 30.64 25.418L67.981 46.977C69.538 47.876 69.538 50.124 67.981 51.023L29.356 73.323C29.007 73.524 28.64 73.611 28.278 73.624C28.934 74.562 30.239 74.967 31.356 74.323L69.981 52.023C71.538 51.124 71.538 48.876 69.981 47.977Z" fill="#4B3E63"/>
<path d="M31.356 25.6772L69.981 47.9772C71.538 48.8762 71.538 51.1242 69.981 52.0232L31.356 74.3232C29.799 75.2222 27.852 74.0982 27.852 72.3002V27.7002C27.852 25.9022 29.798 24.7782 31.356 25.6772Z" stroke="#4B3E63" stroke-miterlimit="10"/>
</svg>
