<svg width="100" height="100" viewBox="0 0 100 100" fill="none" xmlns="http://www.w3.org/2000/svg">
<path d="M67.7928 73.9624L29.1677 51.6624C27.6107 50.7634 27.6107 48.5154 29.1677 47.6164L67.7928 25.3164C69.3498 24.4174 71.2968 25.5414 71.2968 27.3394V71.9394C71.2968 73.7374 69.3508 74.8614 67.7928 73.9624Z" fill="#4B3E63"/>
<path d="M29.1678 51.6627L67.7928 73.9627C68.0258 74.0967 68.2668 74.1727 68.5088 74.2217L31.1678 52.6627C29.6108 51.7637 29.6108 49.5157 31.1678 48.6167L69.7928 26.3167C70.1418 26.1157 70.5088 26.0287 70.8708 26.0157C70.2148 25.0777 68.9098 24.6727 67.7928 25.3167L29.1678 47.6167C27.6108 48.5157 27.6108 50.7637 29.1678 51.6627Z" fill="#4B3E63"/>
<path d="M67.7928 73.9624L29.1677 51.6624C27.6107 50.7634 27.6107 48.5154 29.1677 47.6164L67.7928 25.3164C69.3498 24.4174 71.2968 25.5414 71.2968 27.3394V71.9394C71.2968 73.7374 69.3508 74.8614 67.7928 73.9624Z" stroke="#4B3E63" stroke-miterlimit="10"/>
</svg>
