<svg width="140" height="35" viewBox="0 0 198 50" fill="none" xmlns="http://www.w3.org/2000/svg">
    <g clip-path="url(#clip0_7908_26)">
        <path d="M39.5668 -1H8.21198C3.67299 -1 0 2.77236 0 7.4V39.4727C0 44.1004 3.67299 47.8727 8.21198 47.8727H39.5668C44.0909 47.8727 47.7788 44.1004 47.7788 39.4727V7.4C47.7788 2.77236 44.0909 -1 39.5668 -1ZM17.9171 3.58182H20.1567C21.381 3.58182 22.3963 4.60509 22.3963 5.87273C22.3963 7.14036 21.381 8.16364 20.1567 8.16364H17.9171C16.6778 8.16364 15.6774 7.14036 15.6774 5.87273C15.6774 4.60509 16.6778 3.58182 17.9171 3.58182ZM30.7277 22.1993C31.1159 22.4895 31.3548 22.9476 31.3548 23.4364C31.3548 23.9404 31.1159 24.3985 30.7277 24.6887L20.2761 32.3251C20.0074 32.5084 19.7088 32.6 19.4101 32.6C19.1708 32.6062 18.934 32.5483 18.7233 32.432C18.4795 32.3034 18.2753 32.1084 18.133 31.8685C17.9907 31.6287 17.916 31.3533 17.9171 31.0727V15.8C17.9171 15.2349 18.2306 14.7156 18.7233 14.456C19.216 14.1964 19.8133 14.2269 20.2761 14.5629L30.7277 22.1993ZM10.4516 43.2909H8.21198C6.97272 43.2909 5.97235 42.2676 5.97235 41C5.97235 39.7324 6.97272 38.7091 8.21198 38.7091H10.4516C11.6759 38.7091 12.6912 39.7324 12.6912 41C12.6912 42.2676 11.6759 43.2909 10.4516 43.2909ZM10.4516 8.16364H8.21198C6.97272 8.16364 5.97235 7.14036 5.97235 5.87273C5.97235 4.60509 6.97272 3.58182 8.21198 3.58182H10.4516C11.6759 3.58182 12.6912 4.60509 12.6912 5.87273C12.6912 7.14036 11.6759 8.16364 10.4516 8.16364ZM20.1567 43.2909H17.9171C16.6778 43.2909 15.6774 42.2676 15.6774 41C15.6774 39.7324 16.6778 38.7091 17.9171 38.7091H20.1567C21.381 38.7091 22.3963 39.7324 22.3963 41C22.3963 42.2676 21.381 43.2909 20.1567 43.2909ZM29.8617 43.2909H27.6221C26.3829 43.2909 25.3825 42.2676 25.3825 41C25.3825 39.7324 26.3829 38.7091 27.6221 38.7091H29.8617C31.0861 38.7091 32.1014 39.7324 32.1014 41C32.1014 42.2676 31.0861 43.2909 29.8617 43.2909ZM29.8617 8.16364H27.6221C26.3829 8.16364 25.3825 7.14036 25.3825 5.87273C25.3825 4.60509 26.3829 3.58182 27.6221 3.58182H29.8617C31.0861 3.58182 32.1014 4.60509 32.1014 5.87273C32.1014 7.14036 31.0861 8.16364 29.8617 8.16364ZM39.5668 43.2909H37.3272C36.0879 43.2909 35.0876 42.2676 35.0876 41C35.0876 39.7324 36.0879 38.7091 37.3272 38.7091H39.5668C40.7912 38.7091 41.8065 39.7324 41.8065 41C41.8065 42.2676 40.7912 43.2909 39.5668 43.2909ZM39.5668 8.16364H37.3272C36.0879 8.16364 35.0876 7.14036 35.0876 5.87273C35.0876 4.60509 36.0879 3.58182 37.3272 3.58182H39.5668C40.7912 3.58182 41.8065 4.60509 41.8065 5.87273C41.8065 7.14036 40.7912 8.16364 39.5668 8.16364Z"
              fill="#79C142"/>
        <path d="M59.064 15.984C60.232 15.984 61.256 16.152 62.136 16.488C63.032 16.808 63.48 17.248 63.48 17.808C63.48 18.368 63.264 19.064 62.832 19.896C62.416 20.712 62.064 21.12 61.776 21.12C61.696 21.12 61.6 21.08 61.488 21C61.392 20.904 61.152 20.808 60.768 20.712C60.4 20.6 60.08 20.544 59.808 20.544C58.88 20.544 58.128 20.872 57.552 21.528C56.992 22.184 56.712 23.192 56.712 24.552C56.712 25.896 57 26.896 57.576 27.552C58.168 28.208 58.912 28.536 59.808 28.536C60.176 28.536 60.584 28.488 61.032 28.392C61.496 28.28 61.824 28.128 62.016 27.936C62.048 27.904 62.112 27.888 62.208 27.888C62.304 27.888 62.48 28.072 62.736 28.44C63.008 28.792 63.256 29.264 63.48 29.856C63.704 30.432 63.816 30.88 63.816 31.2C63.816 31.824 63.336 32.32 62.376 32.688C61.416 33.056 60.28 33.24 58.968 33.24C56.856 33.24 55.12 32.496 53.76 31.008C52.4 29.52 51.72 27.424 51.72 24.72C51.72 22 52.416 19.864 53.808 18.312C55.216 16.76 56.968 15.984 59.064 15.984ZM67.2371 28.872V20.328H65.5331C65.2611 20.328 65.0691 19.984 64.9571 19.296C64.9091 18.96 64.8851 18.616 64.8851 18.264C64.8851 17.912 64.9091 17.568 64.9571 17.232C65.0691 16.544 65.2611 16.2 65.5331 16.2H73.5971C73.8691 16.2 74.0531 16.544 74.1491 17.232C74.2131 17.568 74.2451 17.912 74.2451 18.264C74.2451 18.616 74.2131 18.96 74.1491 19.296C74.0531 19.984 73.8691 20.328 73.5971 20.328H71.9891V28.872H73.6691C73.9411 28.872 74.1331 29.216 74.2451 29.904C74.3091 30.24 74.3411 30.584 74.3411 30.936C74.3411 31.288 74.3091 31.632 74.2451 31.968C74.1331 32.656 73.9411 33 73.6691 33H65.5811C65.3091 33 65.1251 32.656 65.0291 31.968C64.9651 31.632 64.9331 31.288 64.9331 30.936C64.9331 30.584 64.9651 30.24 65.0291 29.904C65.1251 29.216 65.3091 28.872 65.5811 28.872H67.2371ZM89.0942 32.472C89.0942 32.808 88.3422 32.976 86.8382 32.976C85.3342 32.976 84.5182 32.856 84.3902 32.616L80.3822 25.128V32.592C80.3822 32.88 79.6382 33.024 78.1502 33.024C76.6782 33.024 75.9422 32.88 75.9422 32.592V16.536C75.9422 16.296 76.5742 16.176 77.8382 16.176C78.3342 16.176 78.9102 16.224 79.5662 16.32C80.2382 16.4 80.6462 16.56 80.7902 16.8L84.6302 24.192V16.656C84.6302 16.352 85.3742 16.2 86.8622 16.2C88.3502 16.2 89.0942 16.352 89.0942 16.656V32.472ZM99.3047 22.872C99.6087 22.872 99.7607 23.432 99.7607 24.552C99.7607 24.888 99.7207 25.288 99.6407 25.752C99.5767 26.2 99.4487 26.424 99.2567 26.424H96.2087V28.824H100.625C100.897 28.824 101.081 29.176 101.177 29.88C101.225 30.184 101.249 30.512 101.249 30.864C101.249 31.2 101.201 31.64 101.105 32.184C101.009 32.728 100.849 33 100.625 33H92.4167C91.8087 33 91.5047 32.752 91.5047 32.256V16.824C91.5047 16.408 91.6887 16.2 92.0567 16.2H100.649C100.985 16.2 101.153 16.912 101.153 18.336C101.153 19.744 100.985 20.448 100.649 20.448H96.2087V22.872H99.3047ZM120.141 33.024C118.717 33.024 118.005 32.864 118.005 32.544L117.501 22.92L114.573 32.664C114.509 32.856 113.965 32.952 112.941 32.952C111.917 32.952 111.389 32.864 111.357 32.688L108.333 22.824L107.997 32.4C107.981 32.64 107.677 32.808 107.085 32.904C106.493 32.984 105.997 33.024 105.597 33.024C105.213 33.024 104.837 33 104.469 32.952C103.701 32.84 103.325 32.64 103.341 32.352L103.893 16.752C103.893 16.368 104.869 16.176 106.821 16.176C107.397 16.176 108.101 16.224 108.933 16.32C109.765 16.4 110.229 16.568 110.325 16.824L113.013 24.384L115.365 16.8C115.509 16.384 116.613 16.176 118.677 16.176C119.269 16.176 119.973 16.224 120.789 16.32C121.621 16.4 122.037 16.552 122.037 16.776L122.733 32.52C122.733 32.696 122.421 32.824 121.797 32.904C121.173 32.984 120.621 33.024 120.141 33.024ZM136.394 33.048C135.002 33.048 134.25 32.824 134.138 32.376L133.346 29.28H129.53L128.834 32.256C128.738 32.752 127.97 33 126.53 33C125.762 33 125.194 32.96 124.826 32.88C124.458 32.784 124.274 32.712 124.274 32.664L128.522 16.416C128.522 16.288 129.618 16.224 131.81 16.224C134.002 16.224 135.098 16.288 135.098 16.416L139.25 32.688C139.25 32.8 138.882 32.888 138.146 32.952C137.41 33.016 136.826 33.048 136.394 33.048ZM130.13 26.232H132.65L131.57 21.264H131.426L130.13 26.232ZM153.897 32.592C153.897 32.864 153.089 33 151.473 33C149.857 33 149.049 32.864 149.049 32.592V27.072H145.689V32.592C145.689 32.864 144.881 33 143.265 33C141.649 33 140.841 32.864 140.841 32.592V16.68C140.841 16.344 141.649 16.176 143.265 16.176C144.881 16.176 145.689 16.344 145.689 16.68V22.32H149.049V16.728C149.049 16.504 149.449 16.344 150.249 16.248C150.665 16.216 151.073 16.2 151.473 16.2L152.697 16.248C153.497 16.344 153.897 16.504 153.897 16.728V32.592ZM164.134 16.68C164.134 16.36 164.998 16.2 166.726 16.2C168.47 16.2 169.342 16.36 169.342 16.68V27.696C169.342 29.328 168.758 30.664 167.59 31.704C166.422 32.728 164.806 33.24 162.742 33.24C160.694 33.24 159.022 32.712 157.726 31.656C156.446 30.584 155.806 29.144 155.806 27.336V16.704C155.806 16.384 156.67 16.224 158.398 16.224C160.142 16.224 161.014 16.384 161.014 16.704V27.528C161.014 27.848 161.182 28.104 161.518 28.296C161.87 28.488 162.238 28.584 162.622 28.584C163.006 28.584 163.35 28.496 163.654 28.32C163.974 28.144 164.134 27.88 164.134 27.528V16.68ZM183.14 20.544C183.14 22.208 182.42 23.472 180.98 24.336C181.764 24.624 182.42 25.12 182.948 25.824C183.476 26.528 183.74 27.528 183.74 28.824C183.74 30.104 183.26 31.12 182.3 31.872C181.356 32.624 179.996 33 178.22 33H172.556C172.284 33 172.06 32.912 171.884 32.736C171.708 32.544 171.62 32.296 171.62 31.992V16.632C171.62 16.456 171.644 16.344 171.692 16.296C171.756 16.232 171.876 16.2 172.052 16.2H177.524C181.268 16.2 183.14 17.648 183.14 20.544ZM176.228 20.088V23.232H176.348C177.884 23.232 178.652 22.72 178.652 21.696C178.652 21.136 178.5 20.728 178.196 20.472C177.908 20.216 177.42 20.088 176.732 20.088H176.228ZM176.228 26.064V29.184H176.66C177.348 29.184 177.852 29.056 178.172 28.8C178.492 28.544 178.652 28.136 178.652 27.576C178.652 27.016 178.5 26.624 178.196 26.4C177.908 26.176 177.42 26.064 176.732 26.064H176.228Z"
              fill="black"/>
    </g>
    <defs>
        <clipPath id="clip0_7908_26">
            <rect width="198" height="50" fill="white"/>
        </clipPath>
    </defs>
</svg>
