<svg id="visual" viewBox="0 0 900 600" width="900" height="600" xmlns="http://www.w3.org/2000/svg" xmlns:xlink="http://www.w3.org/1999/xlink" version="1.1"><path d="M0 67L13.7 67C27.3 67 54.7 67 82 68C109.3 69 136.7 71 163.8 77C191 83 218 93 245.2 88C272.3 83 299.7 63 327 61C354.3 59 381.7 75 409 84C436.3 93 463.7 95 491 92C518.3 89 545.7 81 573 77C600.3 73 627.7 73 654.8 73C682 73 709 73 736.2 80C763.3 87 790.7 101 818 103C845.3 105 872.7 95 886.3 90L900 85L900 0L886.3 0C872.7 0 845.3 0 818 0C790.7 0 763.3 0 736.2 0C709 0 682 0 654.8 0C627.7 0 600.3 0 573 0C545.7 0 518.3 0 491 0C463.7 0 436.3 0 409 0C381.7 0 354.3 0 327 0C299.7 0 272.3 0 245.2 0C218 0 191 0 163.8 0C136.7 0 109.3 0 82 0C54.7 0 27.3 0 13.7 0L0 0Z" fill="#d6dadc"></path><path d="M0 163L13.7 158C27.3 153 54.7 143 82 134C109.3 125 136.7 117 163.8 123C191 129 218 149 245.2 154C272.3 159 299.7 149 327 150C354.3 151 381.7 163 409 165C436.3 167 463.7 159 491 150C518.3 141 545.7 131 573 131C600.3 131 627.7 141 654.8 142C682 143 709 135 736.2 145C763.3 155 790.7 183 818 190C845.3 197 872.7 183 886.3 176L900 169L900 83L886.3 88C872.7 93 845.3 103 818 101C790.7 99 763.3 85 736.2 78C709 71 682 71 654.8 71C627.7 71 600.3 71 573 75C545.7 79 518.3 87 491 90C463.7 93 436.3 91 409 82C381.7 73 354.3 57 327 59C299.7 61 272.3 81 245.2 86C218 91 191 81 163.8 75C136.7 69 109.3 67 82 66C54.7 65 27.3 65 13.7 65L0 65Z" fill="#ccd2d5"></path><path d="M0 355L13.7 348C27.3 341 54.7 327 82 335C109.3 343 136.7 373 163.8 378C191 383 218 363 245.2 362C272.3 361 299.7 379 327 375C354.3 371 381.7 345 409 339C436.3 333 463.7 347 491 347C518.3 347 545.7 333 573 325C600.3 317 627.7 315 654.8 299C682 283 709 253 736.2 258C763.3 263 790.7 303 818 310C845.3 317 872.7 291 886.3 278L900 265L900 167L886.3 174C872.7 181 845.3 195 818 188C790.7 181 763.3 153 736.2 143C709 133 682 141 654.8 140C627.7 139 600.3 129 573 129C545.7 129 518.3 139 491 148C463.7 157 436.3 165 409 163C381.7 161 354.3 149 327 148C299.7 147 272.3 157 245.2 152C218 147 191 127 163.8 121C136.7 115 109.3 123 82 132C54.7 141 27.3 151 13.7 156L0 161Z" fill="#c3cacd"></path><path d="M0 475L13.7 483C27.3 491 54.7 507 82 518C109.3 529 136.7 535 163.8 522C191 509 218 477 245.2 476C272.3 475 299.7 505 327 506C354.3 507 381.7 479 409 470C436.3 461 463.7 471 491 471C518.3 471 545.7 461 573 462C600.3 463 627.7 475 654.8 483C682 491 709 495 736.2 499C763.3 503 790.7 507 818 501C845.3 495 872.7 479 886.3 471L900 463L900 263L886.3 276C872.7 289 845.3 315 818 308C790.7 301 763.3 261 736.2 256C709 251 682 281 654.8 297C627.7 313 600.3 315 573 323C545.7 331 518.3 345 491 345C463.7 345 436.3 331 409 337C381.7 343 354.3 369 327 373C299.7 377 272.3 359 245.2 360C218 361 191 381 163.8 376C136.7 371 109.3 341 82 333C54.7 325 27.3 339 13.7 346L0 353Z" fill="#b1b9bc"></path><path d="M0 601L13.7 601C27.3 601 54.7 601 82 601C109.3 601 136.7 601 163.8 601C191 601 218 601 245.2 601C272.3 601 299.7 601 327 601C354.3 601 381.7 601 409 601C436.3 601 463.7 601 491 601C518.3 601 545.7 601 573 601C600.3 601 627.7 601 654.8 601C682 601 709 601 736.2 601C763.3 601 790.7 601 818 601C845.3 601 872.7 601 886.3 601L900 601L900 461L886.3 469C872.7 477 845.3 493 818 499C790.7 505 763.3 501 736.2 497C709 493 682 489 654.8 481C627.7 473 600.3 461 573 460C545.7 459 518.3 469 491 469C463.7 469 436.3 459 409 468C381.7 477 354.3 505 327 504C299.7 503 272.3 473 245.2 474C218 475 191 507 163.8 520C136.7 533 109.3 527 82 516C54.7 505 27.3 489 13.7 481L0 473Z" fill="#9fa8ac"></path></svg>